<svg id="sltung-logo" xmlns="http://www.w3.org/2000/svg" width="240.88" height="55.517" viewBox="0 0 240.88 55.517">
  <path id="Union_2" data-name="Union 2" d="M68.549,41.007a1.752,1.752,0,0,1-.476-1.346l.779.139a.986.986,0,0,0,.326.679,1.15,1.15,0,0,0,.752.223,1.3,1.3,0,0,0,.837-.248,1.277,1.277,0,0,0,.425-.74,6.96,6.96,0,0,0,.07-1.26,1.857,1.857,0,0,1-.585.552,1.424,1.424,0,0,1-.721.186,1.717,1.717,0,0,1-1.4-.7,3.416,3.416,0,0,1-.639-2.173,4.178,4.178,0,0,1,.281-1.6,2.2,2.2,0,0,1,.74-1,1.749,1.749,0,0,1,1.026-.321,1.475,1.475,0,0,1,.761.2,1.878,1.878,0,0,1,.609.6v-.678h.736v4.9a5.658,5.658,0,0,1-.217,1.865,1.8,1.8,0,0,1-.709.88,2.11,2.11,0,0,1-1.186.324A1.921,1.921,0,0,1,68.549,41.007Zm.561-6.3a2.635,2.635,0,0,0-.377,1.55,2.806,2.806,0,0,0,.374,1.632,1.107,1.107,0,0,0,.917.514,1.127,1.127,0,0,0,.923-.5,2.673,2.673,0,0,0,.38-1.6,2.659,2.659,0,0,0-.39-1.593,1.157,1.157,0,0,0-.95-.521A1.078,1.078,0,0,0,69.111,34.707Zm-51.254,6.3a1.752,1.752,0,0,1-.476-1.346l.779.139a.984.984,0,0,0,.325.679,1.152,1.152,0,0,0,.753.223,1.3,1.3,0,0,0,.837-.248,1.275,1.275,0,0,0,.425-.74,6.945,6.945,0,0,0,.07-1.26,1.854,1.854,0,0,1-.584.552,1.426,1.426,0,0,1-.721.186,1.717,1.717,0,0,1-1.4-.7,3.417,3.417,0,0,1-.639-2.173,4.181,4.181,0,0,1,.281-1.6,2.2,2.2,0,0,1,.74-1A1.749,1.749,0,0,1,19.27,33.4a1.475,1.475,0,0,1,.761.2,1.885,1.885,0,0,1,.609.6v-.678h.737v4.9a5.674,5.674,0,0,1-.217,1.865,1.81,1.81,0,0,1-.709.88,2.113,2.113,0,0,1-1.186.324A1.921,1.921,0,0,1,17.857,41.007Zm.562-6.3a2.639,2.639,0,0,0-.377,1.55,2.807,2.807,0,0,0,.374,1.632,1.107,1.107,0,0,0,.917.514,1.126,1.126,0,0,0,.922-.5,2.672,2.672,0,0,0,.38-1.6,2.656,2.656,0,0,0-.39-1.593,1.157,1.157,0,0,0-.95-.521A1.079,1.079,0,0,0,18.418,34.707Zm135.621,6.658V33.524h.737v.737a1.858,1.858,0,0,1,.6-.662,1.408,1.408,0,0,1,.757-.2,1.676,1.676,0,0,1,1.005.325,2.236,2.236,0,0,1,.722.991,4.187,4.187,0,0,1,.273,1.6,3.532,3.532,0,0,1-.615,2.229,1.8,1.8,0,0,1-1.443.782,1.341,1.341,0,0,1-.688-.187,1.718,1.718,0,0,1-.552-.528v2.759Zm1.121-6.643a2.949,2.949,0,0,0-.394,1.669,2.812,2.812,0,0,0,.373,1.62,1.024,1.024,0,0,0,1.793-.019,2.891,2.891,0,0,0,.384-1.665,2.894,2.894,0,0,0-.373-1.644.995.995,0,0,0-1.783.039Zm10.48,4.162a1.594,1.594,0,0,1-.439-1.18,1.8,1.8,0,0,1,.206-.87,1.531,1.531,0,0,1,.563-.592,2.978,2.978,0,0,1,1.084-.315,6.121,6.121,0,0,0,1.43-.336l0-.246a1.223,1.223,0,0,0-.211-.816,1.149,1.149,0,0,0-.916-.342,1.29,1.29,0,0,0-.834.228,1.478,1.478,0,0,0-.406.856l-.786-.128a2.141,2.141,0,0,1,.68-1.329,2.269,2.269,0,0,1,1.466-.416,2.126,2.126,0,0,1,1.164.275,1.184,1.184,0,0,1,.533.68,4.788,4.788,0,0,1,.111,1.185v1.281a15.872,15.872,0,0,0,.052,1.695,2.5,2.5,0,0,0,.2.68h-.834a2.326,2.326,0,0,1-.163-.7,2.994,2.994,0,0,1-.834.619,2.059,2.059,0,0,1-.9.208A1.592,1.592,0,0,1,165.64,38.883Zm1.539-2.173a2.5,2.5,0,0,0-.7.195.777.777,0,0,0-.311.31.937.937,0,0,0-.111.462.854.854,0,0,0,.254.648.976.976,0,0,0,.7.243,1.437,1.437,0,0,0,.778-.219,1.375,1.375,0,0,0,.523-.584,2.578,2.578,0,0,0,.173-1.065v-.352A5.146,5.146,0,0,1,167.179,36.71ZM148.57,37.5l.8-.149a1.4,1.4,0,0,0,.384.893,1.362,1.362,0,0,0,1.634.039.828.828,0,0,0,.283-.643.62.62,0,0,0-.244-.523,3.046,3.046,0,0,0-.812-.321,5.907,5.907,0,0,1-1.246-.48,1.361,1.361,0,0,1-.488-.528,1.6,1.6,0,0,1-.173-.753,1.564,1.564,0,0,1,.471-1.18,1.8,1.8,0,0,1,1.305-.454,2.153,2.153,0,0,1,.924.187,1.449,1.449,0,0,1,.609.5,2.171,2.171,0,0,1,.292.9l-.78.128a.93.93,0,0,0-1.024-.929,1.222,1.222,0,0,0-.775.205.641.641,0,0,0-.254.523.581.581,0,0,0,.245.495,4.291,4.291,0,0,0,.868.34,6.644,6.644,0,0,1,1.283.5,1.265,1.265,0,0,1,.454.5,1.662,1.662,0,0,1,.161.757,1.741,1.741,0,0,1-.523,1.315,1.971,1.971,0,0,1-1.427.5A1.847,1.847,0,0,1,148.57,37.5Zm-5.033,1.076a3.363,3.363,0,0,1-.63-2.213,3.382,3.382,0,0,1,.626-2.216,2.045,2.045,0,0,1,3.16,0,3.249,3.249,0,0,1,.633,2.157,3.491,3.491,0,0,1-.623,2.274,2.048,2.048,0,0,1-3.166,0Zm.588-3.846a2.724,2.724,0,0,0-.4,1.63,2.71,2.71,0,0,0,.406,1.639,1.223,1.223,0,0,0,1.007.536,1.179,1.179,0,0,0,.967-.542,2.728,2.728,0,0,0,.4-1.633,2.7,2.7,0,0,0-.406-1.633,1.223,1.223,0,0,0-1.008-.537A1.179,1.179,0,0,0,144.126,34.726Zm-19.373,3.846a3.366,3.366,0,0,1-.631-2.213,3.382,3.382,0,0,1,.626-2.216,2.045,2.045,0,0,1,3.16,0,3.249,3.249,0,0,1,.634,2.157,3.5,3.5,0,0,1-.623,2.274,2.048,2.048,0,0,1-3.166,0Zm.588-3.846a2.724,2.724,0,0,0-.4,1.63,2.716,2.716,0,0,0,.406,1.639,1.223,1.223,0,0,0,1.007.536,1.181,1.181,0,0,0,.967-.542,2.728,2.728,0,0,0,.4-1.633,2.7,2.7,0,0,0-.406-1.633,1.221,1.221,0,0,0-1.007-.537A1.181,1.181,0,0,0,125.341,34.726Zm-15.728,4.158a1.593,1.593,0,0,1-.439-1.18,1.8,1.8,0,0,1,.206-.87,1.525,1.525,0,0,1,.563-.592,2.979,2.979,0,0,1,1.084-.315,6.121,6.121,0,0,0,1.43-.336l0-.246a1.224,1.224,0,0,0-.211-.816,1.149,1.149,0,0,0-.916-.342,1.29,1.29,0,0,0-.834.228,1.479,1.479,0,0,0-.406.856l-.785-.128a2.135,2.135,0,0,1,.68-1.329,2.265,2.265,0,0,1,1.465-.416,2.126,2.126,0,0,1,1.164.275,1.184,1.184,0,0,1,.533.68,4.791,4.791,0,0,1,.111,1.185v1.281a15.976,15.976,0,0,0,.051,1.695,2.5,2.5,0,0,0,.2.68h-.834a2.341,2.341,0,0,1-.163-.7,2.984,2.984,0,0,1-.834.619,2.059,2.059,0,0,1-.9.208A1.59,1.59,0,0,1,109.613,38.883Zm1.538-2.173a2.5,2.5,0,0,0-.7.195.773.773,0,0,0-.311.31.929.929,0,0,0-.111.462.853.853,0,0,0,.255.648.974.974,0,0,0,.7.243,1.436,1.436,0,0,0,.778-.219,1.375,1.375,0,0,0,.523-.584,2.581,2.581,0,0,0,.173-1.065v-.352A5.149,5.149,0,0,1,111.151,36.71ZM96.934,38.571a3.367,3.367,0,0,1-.631-2.213,3.383,3.383,0,0,1,.626-2.216,2.045,2.045,0,0,1,3.16,0,3.249,3.249,0,0,1,.634,2.157,3.5,3.5,0,0,1-.623,2.274,2.048,2.048,0,0,1-3.166,0Zm.588-3.846a2.726,2.726,0,0,0-.4,1.63,2.715,2.715,0,0,0,.406,1.639,1.222,1.222,0,0,0,1.008.536,1.179,1.179,0,0,0,.967-.542,2.724,2.724,0,0,0,.4-1.633,2.7,2.7,0,0,0-.406-1.633,1.221,1.221,0,0,0-1.007-.537A1.181,1.181,0,0,0,97.522,34.726ZM84.5,38.571a3.318,3.318,0,0,1-.62-2.165,3.474,3.474,0,0,1,.626-2.238,1.952,1.952,0,0,1,1.584-.772,1.887,1.887,0,0,1,1.528.758,3.424,3.424,0,0,1,.612,2.194l-.006.256h-3.52a2.423,2.423,0,0,0,.449,1.441,1.219,1.219,0,0,0,.975.486q.9,0,1.251-1.164l.823.123a2.459,2.459,0,0,1-.744,1.369,1.981,1.981,0,0,1-1.336.462A2.005,2.005,0,0,1,84.5,38.571Zm.669-3.945a1.913,1.913,0,0,0-.417,1.188h2.632a2.148,2.148,0,0,0-.32-1.1,1.173,1.173,0,0,0-1.9-.088Zm-27.642,4.4A1.422,1.422,0,0,1,57,38.274a4.573,4.573,0,0,1-.132-1.238V33.524h.8v3.144a4.887,4.887,0,0,0,.089,1.172.906.906,0,0,0,.88.654,1.154,1.154,0,0,0,.943-.464,2.492,2.492,0,0,0,.314-1.468V33.524h.8v5.669H59.98V38.36a2.032,2.032,0,0,1-.65.72,1.526,1.526,0,0,1-.845.241A1.546,1.546,0,0,1,57.532,39.025Zm-19.6-.142a1.6,1.6,0,0,1-.438-1.18,1.793,1.793,0,0,1,.206-.87,1.522,1.522,0,0,1,.563-.592,2.973,2.973,0,0,1,1.084-.315,6.108,6.108,0,0,0,1.429-.336l.006-.246a1.221,1.221,0,0,0-.211-.816,1.148,1.148,0,0,0-.915-.342,1.291,1.291,0,0,0-.834.228,1.482,1.482,0,0,0-.406.856l-.785-.128a2.141,2.141,0,0,1,.68-1.329,2.268,2.268,0,0,1,1.465-.416,2.128,2.128,0,0,1,1.165.275,1.184,1.184,0,0,1,.533.68,4.819,4.819,0,0,1,.111,1.185v1.281a15.847,15.847,0,0,0,.052,1.695,2.453,2.453,0,0,0,.2.68H41a2.308,2.308,0,0,1-.163-.7,2.992,2.992,0,0,1-.834.619,2.057,2.057,0,0,1-.9.208A1.591,1.591,0,0,1,37.927,38.883Zm1.538-2.173a2.487,2.487,0,0,0-.7.195.773.773,0,0,0-.312.31.936.936,0,0,0-.111.462.852.852,0,0,0,.254.648.976.976,0,0,0,.7.243,1.435,1.435,0,0,0,.777-.219,1.368,1.368,0,0,0,.523-.584A2.566,2.566,0,0,0,40.77,36.7v-.352A5.139,5.139,0,0,1,39.465,36.71ZM22.9,37.5l.8-.149a1.4,1.4,0,0,0,.384.893,1.363,1.363,0,0,0,1.635.039A.828.828,0,0,0,26,37.634a.62.62,0,0,0-.244-.523,3.045,3.045,0,0,0-.812-.321,5.926,5.926,0,0,1-1.246-.48,1.351,1.351,0,0,1-.487-.528,1.589,1.589,0,0,1-.173-.753,1.563,1.563,0,0,1,.471-1.18,1.8,1.8,0,0,1,1.305-.454,2.151,2.151,0,0,1,.924.187,1.451,1.451,0,0,1,.609.5,2.162,2.162,0,0,1,.293.9l-.78.128a.93.93,0,0,0-1.023-.929,1.224,1.224,0,0,0-.775.205.641.641,0,0,0-.254.523.582.582,0,0,0,.244.495,4.325,4.325,0,0,0,.869.34,6.648,6.648,0,0,1,1.284.5,1.27,1.27,0,0,1,.453.5,1.654,1.654,0,0,1,.161.757,1.74,1.74,0,0,1-.523,1.315,1.972,1.972,0,0,1-1.427.5A1.847,1.847,0,0,1,22.9,37.5ZM6.839,39.025a1.417,1.417,0,0,1-.528-.751,4.546,4.546,0,0,1-.133-1.238V33.524h.8v3.144a4.887,4.887,0,0,0,.089,1.172.906.906,0,0,0,.88.654,1.154,1.154,0,0,0,.943-.464A2.49,2.49,0,0,0,9.2,36.561V33.524H10v5.669H9.287V38.36a2.034,2.034,0,0,1-.65.72,1.527,1.527,0,0,1-.844.241A1.547,1.547,0,0,1,6.839,39.025Zm113.216.085a1.764,1.764,0,0,1-.567-.628v.71h-.743V31.367h.8v2.792a1.8,1.8,0,0,1,.576-.573,1.383,1.383,0,0,1,.718-.19,1.679,1.679,0,0,1,1,.325,2.209,2.209,0,0,1,.723.987,4.24,4.24,0,0,1,.271,1.607,3.533,3.533,0,0,1-.613,2.223,1.787,1.787,0,0,1-1.432.782A1.336,1.336,0,0,1,120.055,39.11Zm-.191-4.377a2.721,2.721,0,0,0-.388,1.583,4.015,4.015,0,0,0,.163,1.318,1.456,1.456,0,0,0,.462.667,1.06,1.06,0,0,0,.662.23,1.079,1.079,0,0,0,.877-.547,2.861,2.861,0,0,0,.382-1.637,2.885,2.885,0,0,0-.369-1.639,1.016,1.016,0,0,0-1.79.024ZM46.424,38.57a3.5,3.5,0,0,1-.6-2.218,3.45,3.45,0,0,1,.6-2.217,1.912,1.912,0,0,1,1.552-.74,1.78,1.78,0,0,1,1.232.448,2.2,2.2,0,0,1,.642,1.345l-.774.139a1.649,1.649,0,0,0-.4-.858.921.921,0,0,0-.677-.284,1.175,1.175,0,0,0-.977.516,2.737,2.737,0,0,0-.387,1.636,2.934,2.934,0,0,0,.371,1.676,1.125,1.125,0,0,0,.951.518,1.027,1.027,0,0,0,.777-.344,1.868,1.868,0,0,0,.409-1.07l.785.123a2.567,2.567,0,0,1-.68,1.547,1.8,1.8,0,0,1-1.308.534A1.868,1.868,0,0,1,46.424,38.57Zm116.533.534a.825.825,0,0,1-.35-.446,4.245,4.245,0,0,1-.095-1.126V34.272h-.585v-.748h.585v-1.4l.8-.577v1.98h.807v.748h-.807v3.314a1.543,1.543,0,0,0,.071.593.4.4,0,0,0,.384.192,2.2,2.2,0,0,0,.352-.037l.108.848a2.374,2.374,0,0,1-.6.085A1.229,1.229,0,0,1,162.956,39.1Zm-72.509,0a.828.828,0,0,1-.35-.446A4.287,4.287,0,0,1,90,37.533V34.272h-.586v-.748H90v-1.4l.8-.577v1.98h.807v.748H90.8v3.314a1.545,1.545,0,0,0,.07.593.4.4,0,0,0,.385.192,2.191,2.191,0,0,0,.352-.037l.108.848a2.379,2.379,0,0,1-.6.085A1.231,1.231,0,0,1,90.447,39.1Zm80.672.088V31.367h.8v7.825Zm-11.412,0V33.524h.8v5.669Zm-19.317,0V35.5h-3.385v3.688h-.862V31.367h.862v3.213h3.385V31.367h.861v7.825Zm-10.3,0V33.524h.72v.86a2.393,2.393,0,0,1,.507-.793.777.777,0,0,1,.517-.195,1.379,1.379,0,0,1,.818.309l-.27.891a1.021,1.021,0,0,0-.58-.208.71.71,0,0,0-.465.177.941.941,0,0,0-.3.491,4.353,4.353,0,0,0-.151,1.169v2.968Zm-14.976,0V33.524h.721v.86a2.394,2.394,0,0,1,.507-.793.777.777,0,0,1,.517-.195,1.378,1.378,0,0,1,.818.309l-.271.891a1.016,1.016,0,0,0-.58-.208.711.711,0,0,0-.466.177.941.941,0,0,0-.3.491,4.384,4.384,0,0,0-.152,1.169v2.968Zm-8.489,0V35.5h-3.385v3.688h-.861V31.367h.861v3.213h3.385V31.367h.861v7.825Zm-13.661,0V33.524h.72v.86a2.393,2.393,0,0,1,.507-.793.777.777,0,0,1,.517-.195,1.38,1.38,0,0,1,.818.309l-.271.891a1.018,1.018,0,0,0-.58-.208.711.711,0,0,0-.466.177.942.942,0,0,0-.3.491,4.383,4.383,0,0,0-.151,1.169v2.968Zm-11.52,0V32.648l-1.9,6.545h-.773l-1.888-6.657v6.657H76.06V31.367h1.294l1.546,5.54.309,1.158q.114-.432.347-1.254l1.562-5.444h1.159v7.825Zm-15.855,0V35.741a2.793,2.793,0,0,0-.108-.914.91.91,0,0,0-.338-.446.925.925,0,0,0-.534-.157,1.114,1.114,0,0,0-.915.422,2.343,2.343,0,0,0-.341,1.448v3.1h-.8V33.524h.72v.8a1.853,1.853,0,0,1,.636-.7,1.609,1.609,0,0,1,.862-.23,1.674,1.674,0,0,1,.7.146,1.434,1.434,0,0,1,.518.385,1.55,1.55,0,0,1,.3.616,5.061,5.061,0,0,1,.1,1.164v3.485Zm-11.326,0V35.6A1.667,1.667,0,0,0,54,34.543a.9.9,0,0,0-.731-.32,1.141,1.141,0,0,0-.885.411,2.212,2.212,0,0,0-.366,1.457v3.1h-.8V31.367h.8v2.808a1.944,1.944,0,0,1,.637-.584,1.593,1.593,0,0,1,.783-.195,1.539,1.539,0,0,1,1.188.472,2.589,2.589,0,0,1,.436,1.732v3.593Zm-10.834,0V33.524h.8v5.669Zm-9.047,0v-6.9H32.242v-.923H37.4v.923H35.248v6.9Zm-19.486,0V35.741a2.812,2.812,0,0,0-.108-.914.915.915,0,0,0-.339-.446.925.925,0,0,0-.534-.157,1.115,1.115,0,0,0-.915.422,2.347,2.347,0,0,0-.341,1.448v3.1h-.8V33.524h.72v.8a1.856,1.856,0,0,1,.636-.7,1.61,1.61,0,0,1,.862-.23,1.673,1.673,0,0,1,.7.146,1.44,1.44,0,0,1,.519.385,1.557,1.557,0,0,1,.294.616,5.061,5.061,0,0,1,.1,1.164v3.485Zm-12.756,0v-6.9H0v-.923H5.161v.923H3.006v6.9Zm26.2-4.992-.215-2.686h.923L28.837,34.2Zm131.364-1.728V31.367h.8v1.105Zm-116.274,0V31.367h.8v1.105Zm-3.519-4.515a1.538,1.538,0,0,1-.441-1.143V15.465l-2.953.322a1.857,1.857,0,0,1-1.291-.264,1.261,1.261,0,0,1-.645-.879,1.3,1.3,0,0,1,.272-1,2.2,2.2,0,0,1,1.222-.615h.442l2.58-2.962a23.075,23.075,0,0,0-3.632-2.7,1.677,1.677,0,0,1-.815-.909,1.041,1.041,0,0,1,.136-1.027,1.675,1.675,0,0,1,.951-.645,2.024,2.024,0,0,1,1.29.175c.78-1.26,1.527-2.639,2.274-4.135a1.619,1.619,0,0,1,.985-.762,1.553,1.553,0,0,1,1.188.118,2.074,2.074,0,0,1,.815.762c.135.645-.849,2.522-2.919,5.63L40.73,7.723a34.282,34.282,0,0,0,2.037-3.93,1.623,1.623,0,0,1,.848-.908,1.9,1.9,0,0,1,1.223-.059,1.748,1.748,0,0,1,.882.674,1.745,1.745,0,0,1,.1.85c-.645,2.229-2.377,4.986-5.161,8.24l2.852-.322a4.191,4.191,0,0,1-.543-2.112,1.615,1.615,0,0,1,.815-.791,2.325,2.325,0,0,1,1.188-.03,1.582,1.582,0,0,1,.916.821l.916,2.229c.815,1.847,1.052,3.02.713,3.459a1.415,1.415,0,0,1-.95.646,2.288,2.288,0,0,1-1.188-.147,2.143,2.143,0,0,1-.849-1.437l-1.8.235V26.814a1.419,1.419,0,0,1-.475,1.114,1.867,1.867,0,0,1-1.155.441A1.953,1.953,0,0,1,39.914,27.957Zm100.9-.088a1.461,1.461,0,0,1-.509-1.173V3.236a1.767,1.767,0,0,1,.714-1.525,2.221,2.221,0,0,1,1.662-.528h3.769a2.5,2.5,0,0,1,1.9.44A2.175,2.175,0,0,1,149.27,2.8a1.765,1.765,0,0,1-.1,1.173l-1.425,5.366v.059a2.72,2.72,0,0,0,.406,2.346,10.173,10.173,0,0,1,1.868,4.311c.408,2.17,0,3.783-1.256,4.78-1.053.88-2.75,1.144-5.025.762v5.1a1.52,1.52,0,0,1-.508,1.2,2.047,2.047,0,0,1-1.222.41A1.887,1.887,0,0,1,140.817,27.87Zm3.26-23.637a.9.9,0,0,0-.341.792V18.281a5.787,5.787,0,0,0,1.766.5,1.267,1.267,0,0,0,.781-.176c1.052-1.114.747-3.05-.849-5.718-.985-1.232-1.29-2.317-.952-3.2l1.325-4.779c.271-.646.033-1-.781-1-.044,0-.087,0-.129,0A1.023,1.023,0,0,0,144.077,4.233ZM148.116,27.9a1.733,1.733,0,0,1-1.052-.88,2.009,2.009,0,0,1-.034-1.261,2.135,2.135,0,0,1,1.29-.939,11.145,11.145,0,0,0,2.376-1.114c2.615-1.554,3.938-3.666,3.938-6.276V15.876h-2.954a1.81,1.81,0,0,1-1.222-.411,1.214,1.214,0,0,1-.442-1.027,1.359,1.359,0,0,1,.442-1,1.8,1.8,0,0,1,1.222-.411h17.246a1.707,1.707,0,0,1,1.188.381,1.291,1.291,0,0,1,.441,1.026,1.378,1.378,0,0,1-.441,1.027,1.72,1.72,0,0,1-1.188.411h-4.243v7.143a2.539,2.539,0,0,0,.117,1.043,1.561,1.561,0,0,0,1.569.71c.067,0,.151,0,.247,0a1.906,1.906,0,0,0,1.545-.432c.352-.4.192-1.928.192-2.574a1.82,1.82,0,0,1,.475-1.2,2.174,2.174,0,0,1,1.222-.411,2.354,2.354,0,0,1,1.222.382,1.708,1.708,0,0,1,.476,1.2c-.17,2.7-.263,3.767-.9,4.577-1.11,1.4-3.933,1.313-5.595,1.21a6.312,6.312,0,0,1-1.263-.18,3.681,3.681,0,0,1-1.387-.73,4.54,4.54,0,0,1-1.345-3.749V15.876h-3.191V17.43l-.306,2.17a12.423,12.423,0,0,1-6.586,7.683,6.611,6.611,0,0,1-2.5.71A1.493,1.493,0,0,1,148.116,27.9Zm-94.351.028c-1.6-.117-2.647-.469-3.021-1.056a1.274,1.274,0,0,1-.136-1.055,1.615,1.615,0,0,1,2.173-.938,5.147,5.147,0,0,0,2.512.029,1.079,1.079,0,0,0,.34-.938V14.732H49.183a1.752,1.752,0,0,1-1.222-.411,1.214,1.214,0,0,1-.441-1.027,1.355,1.355,0,0,1,.441-1,1.747,1.747,0,0,1,1.222-.412H64.969a1.762,1.762,0,0,1,1.188.382,1.3,1.3,0,0,1,.441,1.026,1.277,1.277,0,0,1-.441,1,1.668,1.668,0,0,1-1.188.44H58.926v9.941a3.356,3.356,0,0,1-1.731,2.9,5.579,5.579,0,0,1-2.438.38C54.447,27.956,54.116,27.947,53.766,27.928Zm55.149-.146a1.806,1.806,0,0,1-1.358-.557,1.825,1.825,0,0,1-.577-1.408V18.984a1.287,1.287,0,0,1,.577-1.172,1.832,1.832,0,0,1,1.358-.529h6.823v-.939H105.727a1.472,1.472,0,0,1-1.052-.351,1.191,1.191,0,0,1-.34-.85,1.3,1.3,0,0,1,.34-.85,1.609,1.609,0,0,1,1.052-.323h29.68a1.685,1.685,0,0,1,1.018.293,1.211,1.211,0,0,1,.34.88,1.229,1.229,0,0,1-.34.821,1.292,1.292,0,0,1-1.018.38h-9.619v.939h6.178a2.351,2.351,0,0,1,1.7.529,1.544,1.544,0,0,1,.612,1.172v6.833a1.716,1.716,0,0,1-.747,1.379,2.119,2.119,0,0,1-1.561.587Zm1.221-2.581.17.293a.521.521,0,0,0,.374.147h19.894l.374-.147.169-.293v-.147h-20.98Zm.137-5.63a.349.349,0,0,0-.137.352v3.431h20.98V22.6h-6.145a2.5,2.5,0,0,1-1.629-.586,2.675,2.675,0,0,1-.712-1.825v-.763h-3.836l-.305.939c-.985,1.408-3.158,2.534-6.383,2.827a2.049,2.049,0,0,1-1.12-.351,1.135,1.135,0,0,1-.406-.88c.067-.791.576-1.2,1.562-1.2,1.866-.146,3.02-.745,3.361-1.332H110.68Zm15.515.029a1.089,1.089,0,0,0,.2.821,1.229,1.229,0,0,0,.712.206h4.413v-.7l-.169-.323-.374-.176h-4.786ZM118.9,17.283h3.734v-.939H118.9ZM1.935,27.518a1.7,1.7,0,0,1-1.188-.382,1.314,1.314,0,0,1-.407-1,1.253,1.253,0,0,1,.407-.968,1.706,1.706,0,0,1,1.188-.382h12.7V23.734H3.9a1.6,1.6,0,0,1-1.053-.352,1.173,1.173,0,0,1-.407-.909,1.115,1.115,0,0,1,.407-.88A1.594,1.594,0,0,1,3.9,21.242H14.632V20.127H5.262A2.087,2.087,0,0,1,3.8,19.512a2.035,2.035,0,0,1-.577-1.525V12.209A1.542,1.542,0,0,1,3.8,10.949a2.061,2.061,0,0,1,1.459-.528H26.887a2.55,2.55,0,0,1,1.8.558,1.718,1.718,0,0,1,.611,1.231v5.777a1.989,1.989,0,0,1-.746,1.5,2.705,2.705,0,0,1-1.664.645h-9v1.115H28.449a1.575,1.575,0,0,1,1.018.322,1.092,1.092,0,0,1,.408.909,1.2,1.2,0,0,1-.408.88,1.339,1.339,0,0,1-1.018.381H17.891V24.79H30.553a1.82,1.82,0,0,1,1.155.352,1.236,1.236,0,0,1,.407,1,1.347,1.347,0,0,1-.407.968,1.7,1.7,0,0,1-1.155.411Zm15.956-9.766h7.57l.407-.146.17-.352v-.792H17.891Zm-11.407-.5.17.352.407.146h7.571v-1.29H6.484Zm11.407-3.167h8.148v-.793l-.17-.322a.511.511,0,0,0-.407-.176h-7.57ZM6.654,12.942a.32.32,0,0,0-.17.352v.793h8.148V12.8H7.061ZM75.925,27.165a3.051,3.051,0,0,1-2-.674,2.1,2.1,0,0,1-.848-1.7V16.814a2.263,2.263,0,0,1,.882-1.76,2.54,2.54,0,0,1,1.969-.7h20.1a2.515,2.515,0,0,1,2,.792,2.581,2.581,0,0,1,.714,1.671V24.79a2.221,2.221,0,0,1-.714,1.642,3.209,3.209,0,0,1-2,.733Zm.985-9.589a1.009,1.009,0,0,0-.306.762V23.09a1.148,1.148,0,0,0,.306.821,1.281,1.281,0,0,0,.883.292h16.16a1.731,1.731,0,0,0,.916-.292,1.007,1.007,0,0,0,.34-.821V18.339a.9.9,0,0,0-.373-.733,1.255,1.255,0,0,0-.882-.294H77.793c-.046,0-.091-.005-.135-.005A1.078,1.078,0,0,0,76.91,17.576ZM35.807,26.2a1.723,1.723,0,0,1-.883-.5,1.2,1.2,0,0,1-.169-1.085,27.2,27.2,0,0,0,.916-6.393,1.358,1.358,0,0,1,.442-.967,1.681,1.681,0,0,1,1.018-.381,1.862,1.862,0,0,1,1.018.352,1.334,1.334,0,0,1,.34,1.026v.264c-.509,4.663-1.086,7.185-1.6,7.508a1.4,1.4,0,0,1-.767.2A2.388,2.388,0,0,1,35.807,26.2Zm28.414-.645a1.49,1.49,0,0,1-.781-1,62.944,62.944,0,0,0-2.614-6.48,1.233,1.233,0,0,1-.136-1.173,1.32,1.32,0,0,1,.781-.792,2.013,2.013,0,0,1,1.222-.117,1.878,1.878,0,0,1,1.019.88L65.1,19.951c.61,1.437,1.12,2.727,1.493,3.9a1.518,1.518,0,0,1-.136,1.173,1.691,1.691,0,0,1-1.018.645,2.126,2.126,0,0,1-.447.048A1.823,1.823,0,0,1,64.222,25.553Zm-16.159-.146a1.279,1.279,0,0,1-.849-.822,1.551,1.551,0,0,1,.238-1.231,31.544,31.544,0,0,0,2.954-6.217,1.965,1.965,0,0,1,.78-1,1.738,1.738,0,0,1,1.291-.117,1.559,1.559,0,0,1,1.018.674,1.3,1.3,0,0,1,.135,1.2,32.979,32.979,0,0,1-3.259,6.8,1.942,1.942,0,0,1-.985.821,2.017,2.017,0,0,1-.518.069A1.788,1.788,0,0,1,48.063,25.406Zm-3.158-1.2a1.245,1.245,0,0,1-.577-.909l-.78-5.044a1.368,1.368,0,0,1,.2-.939,1.525,1.525,0,0,1,.916-.5,1.721,1.721,0,0,1,1.052.206,1.366,1.366,0,0,1,.578.91l.78,5.044a1.266,1.266,0,0,1-.272,1,1.279,1.279,0,0,1-.916.44c-.061,0-.119.007-.176.007A1.547,1.547,0,0,1,44.905,24.2Zm83.869-11.789-2.648.85c-2.817.586-4.515.674-5.057.206a1.307,1.307,0,0,1-.408-.821,1,1,0,0,1,.339-.88,1.7,1.7,0,0,1,1.019-.351,18.564,18.564,0,0,0,3.531-.411l-2.037-1.172a1.369,1.369,0,0,1-.611-.792l.1-.616H122.6a1.3,1.3,0,0,1-.917-.322.97.97,0,0,1-.339-.762.929.929,0,0,1,.339-.762,1.289,1.289,0,0,1,.917-.293h10.151a2.066,2.066,0,0,1,1.426.2,1.37,1.37,0,0,1,.577,1c.068.792-.985,1.934-3.022,3.342l-.169.117a32.46,32.46,0,0,0,3.645.47,1.864,1.864,0,0,1,1.153.411,1.125,1.125,0,0,1,.272.879,1.21,1.21,0,0,1-.441.792,2.556,2.556,0,0,1-1.338.274A21.077,21.077,0,0,1,128.775,12.415Zm-.2-2.376.578-.292,1.289-.733V8.662c-.033-.148-.271-.235-.645-.235h-4.142A20.329,20.329,0,0,0,128.57,10.039ZM108.3,13.354a2.567,2.567,0,0,1-1.8-.587,2.14,2.14,0,0,1-.645-1.525V2.854a1.79,1.79,0,0,1,.577-1.378,2.143,2.143,0,0,1,1.527-.469h11.068a1.357,1.357,0,0,1,.848.264.817.817,0,0,1,.341.7.96.96,0,0,1-.306.674,1.313,1.313,0,0,1-.882.293h-5.907l-.373.762h5.329a1.155,1.155,0,0,1,.747.235.848.848,0,0,1,.305.645.805.805,0,0,1-.305.645.934.934,0,0,1-.747.293h-2.173V6.579h3.362a1.165,1.165,0,0,1,.747.234.77.77,0,0,1,.305.646.807.807,0,0,1-.305.645,1.027,1.027,0,0,1-.747.263h-2.478c1.595.646,2.478,1.2,2.614,1.672a.9.9,0,0,1-.17.763,1.584,1.584,0,0,1-.781.469,1.3,1.3,0,0,1-.984-.264l-2.784-1.555a13.231,13.231,0,0,1-2.818,1.555c-.916.293-1.562.323-1.9.088a1.162,1.162,0,0,1-.544-.674,1.117,1.117,0,0,1,.17-.821,1.476,1.476,0,0,1,.985-.44l2-.792h-2.716a1.093,1.093,0,0,1-.747-.234.866.866,0,0,1-.305-.674.716.716,0,0,1,.305-.616.977.977,0,0,1,.747-.264h3.564V5.523h-1.935a2.85,2.85,0,0,1-1.527.909,1.067,1.067,0,0,1-.849-.323,1.061,1.061,0,0,1-.374-.7,1.292,1.292,0,0,1,.509-.85,9.455,9.455,0,0,0,1.291-1.613H109.39a1.015,1.015,0,0,0-.577.176.638.638,0,0,0-.2.5v6.921a.914.914,0,0,0,.271.733,1.494,1.494,0,0,0,.782.177H118.9a1.359,1.359,0,0,1,.848.264.734.734,0,0,1,.34.674.863.863,0,0,1-.305.674,1.31,1.31,0,0,1-.882.295ZM75.8,11.448a2.012,2.012,0,0,1-.441-1.438l-2.994,1.144a2.22,2.22,0,0,1-1.631-.029,2.025,2.025,0,0,1-1.018-.968,1.523,1.523,0,0,1-.034-1.377,1.971,1.971,0,0,1,1.189-.91A43.678,43.678,0,0,0,84.351.675,2.679,2.679,0,0,1,86.117,0a2.623,2.623,0,0,1,1.629.5,40.264,40.264,0,0,0,13.131,7.135,1.932,1.932,0,0,1,1.154.938,1.569,1.569,0,0,1,0,1.349,1.84,1.84,0,0,1-1.052,1,2.135,2.135,0,0,1-1.6,0L96.7,9.892a1.446,1.446,0,0,1-.441,1.408,1.754,1.754,0,0,1-1.291.469l-17.815.117A1.991,1.991,0,0,1,75.8,11.448Zm9.3-7.43A44.2,44.2,0,0,1,78,8.69H94.121l-1.493-.762C90.463,6.6,88.883,5.23,87.1,3.96a1.77,1.77,0,0,0-.985-.352A1.535,1.535,0,0,0,85.1,4.018Zm69.773,6.491a1.811,1.811,0,0,1-1.222-.41,1.29,1.29,0,0,1-.442-1.027,1.268,1.268,0,0,1,.442-1,1.806,1.806,0,0,1,1.222-.412h10.353a1.762,1.762,0,0,1,1.189.382,1.192,1.192,0,0,1,.407,1.025,1.325,1.325,0,0,1-.407,1,1.666,1.666,0,0,1-1.189.439Zm-4.923-.5a1.593,1.593,0,0,1-.475-1.173V5.054a2.321,2.321,0,0,1,.848-1.848,2.984,2.984,0,0,1,2.172-.762h5.839V1.507a1.336,1.336,0,0,1,.442-1.085A1.9,1.9,0,0,1,160.033.01a1.782,1.782,0,0,1,1.188.411,1.233,1.233,0,0,1,.543,1.085v.939h6.416a3.51,3.51,0,0,1,1.528.352,2.88,2.88,0,0,1,.95,1.056c.611,1.26.577,3.05-.1,5.425a1.735,1.735,0,0,1-.916,1.027,2.358,2.358,0,0,1-1.29.088,1.428,1.428,0,0,1-1.087-2.024,5.06,5.06,0,0,0,.373-2.669.832.832,0,0,0-.883-.528H153.989a1.073,1.073,0,0,0-.814.294.723.723,0,0,0-.306.673v2.7a1.661,1.661,0,0,1-.474,1.2,2.133,2.133,0,0,1-1.223.41A1.986,1.986,0,0,1,149.949,10.01Zm-98.254.2a1.618,1.618,0,0,1-1.155-.38,1.2,1.2,0,0,1-.442-1,1.219,1.219,0,0,1,.442-.968A1.621,1.621,0,0,1,51.7,7.489h9.946a1.723,1.723,0,0,1,1.12.351,1.2,1.2,0,0,1,.441,1,1.218,1.218,0,0,1-.441.968,1.6,1.6,0,0,1-1.12.41ZM1.528,9.453A1.656,1.656,0,0,1,.408,9.1a1.283,1.283,0,0,1,0-1.877,1.521,1.521,0,0,1,1.12-.352H8.86L7.639,4.585H2.715a1.675,1.675,0,0,1-1.052-.323,1.189,1.189,0,0,1-.408-.938,1.2,1.2,0,0,1,.408-.88,1.533,1.533,0,0,1,1.052-.351H14.563V1.507A1.429,1.429,0,0,1,14.971.421,1.935,1.935,0,0,1,16.262.01,1.914,1.914,0,0,1,17.45.421a1.288,1.288,0,0,1,.509,1.085v.586H29.637a1.523,1.523,0,0,1,1.019.322,1.177,1.177,0,0,1,.407.909,1.219,1.219,0,0,1-.407.909,1.39,1.39,0,0,1-1.019.353H24.986L23.764,6.872h7.061a1.618,1.618,0,0,1,1.087.322,1.192,1.192,0,0,1,.406.938,1.234,1.234,0,0,1-.406.939,1.5,1.5,0,0,1-1.087.381Zm11.067-2.58H20.03l1.222-2.287H11.373ZM46.942,8.69A1.564,1.564,0,0,1,46.5,7.576V5.113a2.23,2.23,0,0,1,.849-1.818,2.875,2.875,0,0,1,2.1-.733h5.331V1.506A1.336,1.336,0,0,1,55.225.421,1.783,1.783,0,0,1,56.482.01a1.913,1.913,0,0,1,1.188.411,1.205,1.205,0,0,1,.51,1.085V2.562h5.873a3.541,3.541,0,0,1,1.562.353,2.886,2.886,0,0,1,.95,1.055,5.86,5.86,0,0,1-.033,3.9,1.715,1.715,0,0,1-.883,1,2.135,2.135,0,0,1-1.222.088c-1.053-.353-1.392-1-1.053-1.936a2.563,2.563,0,0,0,.169-1.2.851.851,0,0,0-.916-.528H50.88a1.054,1.054,0,0,0-.815.264.7.7,0,0,0-.306.675V7.576a1.374,1.374,0,0,1-.475,1.143,1.924,1.924,0,0,1-1.154.411A1.887,1.887,0,0,1,46.942,8.69Zm73.786-2.551a1.337,1.337,0,0,1-.611-.851c-.067-.792.374-1.261,1.291-1.436a2.759,2.759,0,0,0,1.12-.528.778.778,0,0,0,.373-.587v.029a2.07,2.07,0,0,1,.577-1.378,2.543,2.543,0,0,1,1.834-.557h3.769a2.463,2.463,0,0,1,1.8.615,2.1,2.1,0,0,1,.748,1.584v.117l.1.205L132,3.47h1.392l.27-.117.137-.235a1.286,1.286,0,0,1,.374-.939,1.447,1.447,0,0,1,.882-.234,1.19,1.19,0,0,1,.882.264,1.069,1.069,0,0,1,.373.909v.557a1.835,1.835,0,0,1-.305,1.085,1.987,1.987,0,0,1-.849.762,2.974,2.974,0,0,1-1.222.206h-2.818a2.078,2.078,0,0,1-1.833-.91,1.429,1.429,0,0,1-.271-.938V3.735c-.035-.44-.272-.646-.782-.616h-1.969c-.453,0-.717.163-.746.508V3.558A1.987,1.987,0,0,1,124.7,5a8.233,8.233,0,0,1-2.784,1.232,2.451,2.451,0,0,1-.479.05A1.777,1.777,0,0,1,120.728,6.139Zm4.787-2.512v.137A.836.836,0,0,1,125.515,3.627Z" transform="translate(61.067 7.913)"/>
  <g id="sltung-logo-mark" transform="translate(0 0)">
    <path id="Path_3255" data-name="Path 3255" d="M0,27.438A27.438,27.438,0,1,1,27.438,54.875,27.438,27.438,0,0,1,0,27.438" transform="translate(0 0)" fill="#fff"/>
    <path id="Union_3" data-name="Union 3" d="M19.88,38.445V28.677h7.664v9.768Zm-8.932,0V28.677h7.664v9.768ZM28.7,27.49V19.827h9.754V27.49ZM0,27.49V19.827H9.816V27.49Zm28.7-8.931V10.9h9.754v7.663Zm-28.7,0V10.9H9.816v7.663ZM19.88,9.8V0h7.664V9.8Zm-8.932,0V0h7.664V9.8Z" transform="translate(8.135 8.141)" fill="#008a32"/>
    <path id="Union_4" data-name="Union 4" d="M24.4,50.013V45.331h1.267v4.681q-.326.009-.654.009Q24.7,50.021,24.4,50.013Zm-2.431-.177.44-4.505h1.274l-.451,4.626Q22.6,49.912,21.968,49.836Zm4.506-4.505h1.274l.338,4.5q-.625.077-1.261.123Zm2.114,0H29.88l.605,4.088q-.616.137-1.245.243ZM19.43,49.394l.825-4.064h1.294l-.876,4.314Q20.046,49.535,19.43,49.394Zm11.086-4.064h1.321l.967,3.441q-.6.194-1.217.357ZM17.16,48.761,18.2,45.331h1.325l-1.152,3.8Q17.761,48.96,17.16,48.761Zm15.49-3.431h1.363l1.061,2.61q-.582.247-1.18.465ZM14.891,47.887l1.055-2.556h1.372l-1.254,3.04Q15.47,48.143,14.891,47.887ZM12.543,46.7l3.06-5.649V43.71L13.658,47.3Q13.092,47.013,12.543,46.7Zm21.94-3V41.326l3.036,5.367c-.373.2-.668.386-1.052.564ZM10.339,45.265,15.6,37.99v1.844l-4.22,6.15Q10.852,45.638,10.339,45.265Zm24.144-5.142V37.98l5.338,7.164q-.5.389-1.021.753ZM8.374,43.684,15.6,35.336V37.1L9.342,44.5Q8.849,44.105,8.374,43.684Zm26.109-6.6V35.188l7.283,8.354c-.305.292-.62.575-.94.851ZM6.691,42.03l7.423-7.547H15.6L7.564,42.949Q7.117,42.5,6.691,42.03Zm27.792-7.547h1.684l7.232,7.45c-.273.323-.574.639-.864.948Zm2.242,0h1.607l6.427,5.864c-.237.3-.452.579-.768.948ZM5.141,40.17l6.781-5.688h1.573l-7.577,6.69Q5.517,40.681,5.141,40.17ZM3.955,38.5,9.34,34.482h1.939l-6.635,5.08Q4.287,39.04,3.955,38.5ZM39,34.482h1.549l5.48,4.111c-.239.349-.35.516-.607.851Zm2.4,0h2.142l3.567,2.294q-.3.558-.632,1.1Zm-38.658,1.9,3.591-1.9H8.45L3.329,37.506Q3.019,36.953,2.737,36.385Zm42.595-1.9v-1.2l2.815,1.249c-.161.391-.282.666-.463,1.048Zm-43.555-.2,2.977-1.133v1.178l-2.5,1.1C2.084,35.038,1.931,34.674,1.777,34.279Zm43.555-1.9V31.04l3.629,1.205q-.184.608-.4,1.2ZM.993,32.013l3.76-1.106v1.332l-3.375.983Q1.172,32.624.993,32.013ZM45.332,30.3V29.1l4.2.869q-.126.624-.282,1.237ZM.463,29.824l4.29-.96v1.3l-4.016.9Q.585,30.449.463,29.824Zm44.869-1.5V27.149l4.578.273q-.061.635-.153,1.258ZM.114,27.416l4.64-.375v1.178l-4.488.457Q.175,28.05.114,27.416ZM45.332,26.5v-1.17l4.688.107q-.01.638-.052,1.267ZM0,25.33l4.752.01v1.07L.05,26.6Q.01,25.967,0,25.33Zm45.33-1.8,4.637-.184q.042.629.052,1.267l-4.689.087ZM0,24.613c.009-.424.027-.82.055-1.239l4.7.169v1.07Zm45.332-2.8,4.415-.547q.094.624.155,1.258L45.332,23Zm-45.21.7q.062-.634.157-1.258l4.475.258v1.178Zm45.21-2.741,3.938-.882q.154.612.278,1.237l-4.216.944Zm-44.826.2c.086-.416.181-.826.286-1.235l3.961,1.013v1.1ZM45.332,17.7l3.291-.956q.21.6.389,1.207l-3.68,1.08Zm-44.28.1c.124-.405.251-.788.394-1.184l3.307,1.155v1.137Zm44.28-2.091,2.461-1.039q.262.576.5,1.167l-2.956,1.149ZM1.859,15.513c.163-.391.292-.687.474-1.068L4.754,15.7v1.161Zm39.575.092,5.247-3.113q.31.551.593,1.12L43.655,15.6Zm-2.577,0L45.407,10.5c.239.348.4.589.616.949L40.6,15.6Zm-2.278,0,7.538-6.752q.4.491.778,1L38.152,15.6Zm-2.1,0,8.039-8.5q.449.448.875.917l-7.4,7.583Zm-20.576,0L6.887,7.826c.274-.322.637-.641.961-.962L15.483,15.6Zm-2.118,0L5.38,9.522c.2-.287.494-.67.814-1.053L13.4,15.6Zm-2.3,0-5.48-4.238q.361-.523.747-1.024l6.44,5.263Zm-2.938,0L2.9,13.28q.3-.557.637-1.1l4.8,3.421ZM8.623,6.229q.461-.437.943-.848l6.038,7.8v1.892Zm25.86,6.584L40.666,5.5q.494.4.967.819l-7.151,8.355ZM10.293,4.808c.381-.274.679-.511,1.083-.778l4.227,6v2.138Zm24.19,5.268,4.148-6.046q.532.347,1.045.719l-5.193,7.27Zm0-3.884,1.882-3.474q.565.29,1.115.605l-3,5.332ZM12.534,3.345a12.5,12.5,0,0,1,1.152-.64L15.6,6.385V8.65ZM32.686,4.757l1.282-3.1q.593.228,1.171.485l-1.081,2.62Zm-2.191,0L31.666.9q.613.168,1.213.367L31.821,4.757Zm-2.008,0L29.376.379Q30,.49,30.619.63l-.838,4.127Zm-2.118,0L26.827.066q.636.045,1.263.123l-.446,4.569Zm-1.97,0V.008Q24.7,0,25.012,0q.328,0,.654.008V4.757Zm-1.968,0L21.987.182C22.4.132,22.71.1,23.134.073l.372,4.684Zm-2.316,0L19.594.59q.617-.136,1.245-.241l.469,4.408Zm-1.842,0-.967-3.55c.4-.127.72-.22,1.13-.328l.959,3.878Zm-2.219,0L15.012,2.07c.389-.163.638-.261,1.037-.4l1.167,3.09Z" transform="translate(2.348 2.335)" fill="#ffec00"/>
    <path id="Path_3322" data-name="Path 3322" d="M46.923,47.827c-1.568.149-2.986.3-3.284-.3s.746-.4,1.007-.425,2.128.1,2.8,0,1.269-.4,1.269-.731-.186-.6-1.343-.672-4.852.138-4.777-.64,1.418-.479,1.754-.479,3.919,0,4.255-2.351c.323-2.26-3.457-3.623-4.546-3.692a38.746,38.746,0,0,0,4.1-.077c.672-.149,1.348-.3,1.345-.709s-.711-.663-1.606-.742-1.672-.3-1.676-.6.257-.394.966-.365,1.941-.171,1.941-.855-1.157-.615-1.679-.63a21.783,21.783,0,0,0-2.614-.028.222.222,0,0,1-.224-.11,5.85,5.85,0,0,0-.931-1.274,3.118,3.118,0,0,0-2.505-.634c-1.121.185-1.544.986-2.17,1.83a.593.593,0,0,1-.475.238H36.771s-2.351-.2-2.351.608,1.082.863,1.456.855.746,0,.746,0,.617-.084.663.177-.29.448-.663.6a7.5,7.5,0,0,1-1.6.315c-.336.021-1.232.17-1.194.618.052.622,1.559.609,1.977.647a21.765,21.765,0,0,0,2.314.1s1.381-.017,1.717.01c0,0-5,.6-5,3.187s3.434,3.014,4.031,3.043,1.978-.326,2.016.188-.821.774-1.493.774-2.165.038-2.762,0-1.792.029-1.792.462.485.963,1.53.941,1.53-.122,2.053-.134c0,0,1.493-.056,1.493.395,0,0-.186.85-1.493.712s-4.068-.408-4.33.231.933.976,1.493.975H47.595c1.782,0,1.829-.486,1.866-.784s-.97-.821-2.537-.672m-1.415-7.438s.532.412.42.7-.784.458-1.428.346a4.3,4.3,0,0,1-1.567-.561.7.7,0,0,1,0-.894,5.941,5.941,0,0,1,1.567,0,2.029,2.029,0,0,1,1.008.407m-7.813.7c-.112-.29.42-.7.42-.7a2.029,2.029,0,0,1,1.008-.407,5.945,5.945,0,0,1,1.568,0,.7.7,0,0,1,0,.894,5.6,5.6,0,0,1-1.568.561c-.644.112-1.315-.056-1.427-.346m3.154,2.333c-.037.14-.187.252-1.584.14-.209-.017-1.561-.28-1.345-.755a.373.373,0,0,1,.043-.072c.192-.252,1.025-.154,1.3-.124,1.317.14,1.621.671,1.584.812m-.466-6.6c-.22-.014-.87-.185-.972-.4a.236.236,0,0,1-.025-.1c0-.343.815-.58,1.052-.588.784-.028,2.463-.028,2.743,0s1.007.084,1.035.476-.42.616-.812.616-2.575.028-3.023,0m1.926,6.689a.306.306,0,0,1-.031-.057c-.212-.507,1.336-.761,1.53-.782,1.623-.173,1.788-.066,1.85.059.126.248-.285.654-1.814.85-.3.039-1.338.233-1.536-.07" transform="translate(-14.3 -13.728)" fill="#47b"/>
  </g>
  <rect id="Rectangle_142638" data-name="Rectangle 142638" width="7.898" height="54.297" transform="translate(232.982 1.22)" fill="none"/>
</svg>
