<svg id="Sltung-logo" xmlns="http://www.w3.org/2000/svg" width="181.362" height="38.001" viewBox="0 0 181.362 38.001">
  <path id="Path_1208" data-name="Path 1208" d="M0,19A18.995,18.995,0,1,1,19,38,19,19,0,0,1,0,19" fill="#fff"/>
  <path id="Path_1209" data-name="Path 1209" d="M5.331,1.55H4.249a.365.365,0,0,1-.23-.069.286.286,0,0,1-.081-.219.27.27,0,0,1,.081-.2.313.313,0,0,1,.23-.081H6.838V.848A.33.33,0,0,1,6.93.6.4.4,0,0,1,7.207.5.461.461,0,0,1,7.471.6a.338.338,0,0,1,.1.253V.986H10.13a.312.312,0,0,1,.219.069.279.279,0,0,1,0,.414.271.271,0,0,1-.219.081H9.117l-.276.529h1.542a.378.378,0,0,1,.242.069.314.314,0,0,1,.092.219.3.3,0,0,1-.092.219.324.324,0,0,1-.242.081H4a.372.372,0,0,1-.253-.081.271.271,0,0,1-.081-.219.277.277,0,0,1,.081-.207A.372.372,0,0,1,4,2.08H5.6Zm1.519,4.4H4.514a.313.313,0,0,1-.23-.081.269.269,0,0,1-.092-.207.246.246,0,0,1,.092-.2.313.313,0,0,1,.23-.081H6.85V5.118H4.813a.4.4,0,0,1-.322-.138.448.448,0,0,1-.127-.345V3.3a.348.348,0,0,1,.127-.288A.462.462,0,0,1,4.813,2.9H9.531a.537.537,0,0,1,.391.127.368.368,0,0,1,.127.276V4.635a.486.486,0,0,1-.161.345.535.535,0,0,1-.357.138H7.563v.265h2.3a.365.365,0,0,1,.23.069.261.261,0,0,1,.081.207.3.3,0,0,1-.081.207.313.313,0,0,1-.23.081h-2.3v.242h2.762a.442.442,0,0,1,.253.081.321.321,0,0,1,.092.23.365.365,0,0,1-.092.23.379.379,0,0,1-.253.092H4.076a.379.379,0,0,1-.253-.092.321.321,0,0,1-.092-.23.314.314,0,0,1,.092-.219.379.379,0,0,1,.253-.092H6.85Zm0-2.509H5.2l-.092.035-.035.081v.184H6.85Zm0,.84H5.078v.184l.035.081.092.035H6.85Zm1.185-2.2L8.3,1.55H6.136l.276.529ZM7.563,3.737H9.347V3.553L9.3,3.484l-.081-.046H7.563Zm0,.84H9.221L9.3,4.542l.046-.081V4.278H7.563Z" transform="translate(38.482 5.286)" fill="#fff"/>
  <path id="Path_1210" data-name="Path 1210" d="M12.035,2.883H9.526A.857.857,0,0,1,9,2.711a.641.641,0,0,1,0-.944.8.8,0,0,1,.529-.184h6.042v-.3A.756.756,0,0,1,15.775.72a1.007,1.007,0,0,1,1.254,0,.683.683,0,0,1,.265.564v.3h5.95a.8.8,0,0,1,.518.173.6.6,0,0,1,.207.472.638.638,0,0,1-.207.472.746.746,0,0,1-.518.184H20.873l-.621,1.185h3.591a.865.865,0,0,1,.564.161.627.627,0,0,1,.207.483.651.651,0,0,1-.207.495.767.767,0,0,1-.564.2H8.928a.824.824,0,0,1-.575-.184.627.627,0,0,1-.207-.506.613.613,0,0,1,.207-.46.773.773,0,0,1,.575-.184h3.729ZM15.6,12.815H10.136a.853.853,0,0,1-.541-.184.62.62,0,0,1-.207-.472A.6.6,0,0,1,9.6,11.7a.853.853,0,0,1,.541-.184H15.6v-.575H10.826a1.07,1.07,0,0,1-.748-.322,1.026,1.026,0,0,1-.288-.783v-3a.8.8,0,0,1,.288-.656,1.069,1.069,0,0,1,.748-.265H21.84a1.234,1.234,0,0,1,.921.288.93.93,0,0,1,.311.633v3a1.041,1.041,0,0,1-.38.771,1.384,1.384,0,0,1-.852.334H17.26v.575h5.374a.8.8,0,0,1,.518.173.571.571,0,0,1,.207.472.608.608,0,0,1-.207.449.668.668,0,0,1-.518.207H17.26v.541H23.7a.928.928,0,0,1,.6.184.651.651,0,0,1,.207.518.714.714,0,0,1-.207.506.881.881,0,0,1-.6.207H9.135a.866.866,0,0,1-.61-.2.7.7,0,0,1-.207-.518.677.677,0,0,1,.207-.506.866.866,0,0,1,.61-.2H15.6Zm0-5.674H11.747l-.207.069a.178.178,0,0,0-.092.184v.414H15.6Zm0,1.9H11.448v.414l.092.173.207.081H15.6Zm2.751-4.972.621-1.185H13.945l.621,1.185ZM17.26,7.809h4.155V7.395l-.092-.161a.224.224,0,0,0-.207-.092H17.26Zm0,1.9h3.855l.207-.081.092-.173V9.04H17.26Z" transform="translate(85.591 5.265)" fill="#fff"/>
  <path id="Path_1211" data-name="Path 1211" d="M10.662,8.694a1.013,1.013,0,0,1-.656-.138.629.629,0,0,1-.322-.46.653.653,0,0,1,.138-.518,1.1,1.1,0,0,1,.621-.311h.219l1.312-1.542a12.192,12.192,0,0,0-1.841-1.4.785.785,0,0,1-.414-.472.531.531,0,0,1,.069-.529.845.845,0,0,1,.483-.334,1.034,1.034,0,0,1,.656.092c.391-.656.771-1.37,1.151-2.141a.884.884,0,0,1,.506-.4.769.769,0,0,1,.61.069A1.135,1.135,0,0,1,13.608,1c.069.334-.437,1.312-1.5,2.923l.7.587A18.8,18.8,0,0,0,13.85,2.468.825.825,0,0,1,14.276,2a.947.947,0,0,1,.621-.023.864.864,0,0,1,.449.345.92.92,0,0,1,.058.437A12.842,12.842,0,0,1,12.78,7.037l1.45-.173a2.126,2.126,0,0,1-.276-1.093.849.849,0,0,1,.414-.414,1.167,1.167,0,0,1,.6-.012.845.845,0,0,1,.472.426l.46,1.151c.426.967.541,1.577.368,1.8a.715.715,0,0,1-.483.345,1.2,1.2,0,0,1-.61-.081,1.147,1.147,0,0,1-.426-.748l-.921.127v6.053a.723.723,0,0,1-.242.575.965.965,0,0,1-.587.23,1.056,1.056,0,0,1-.61-.219.8.8,0,0,1-.219-.587V8.522Zm-.207.76a.8.8,0,0,1,.518-.2.855.855,0,0,1,.518.184.635.635,0,0,1,.173.529v.138c-.253,2.417-.552,3.729-.806,3.89a.778.778,0,0,1-.552.092.917.917,0,0,1-.449-.253.645.645,0,0,1-.092-.564,14.456,14.456,0,0,0,.472-3.326.665.665,0,0,1,.219-.495m5.582,2.969a.623.623,0,0,1-.6.737.766.766,0,0,1-.506-.1.649.649,0,0,1-.288-.472l-.4-2.612a.776.776,0,0,1,.1-.483.809.809,0,0,1,.472-.265.862.862,0,0,1,.529.1.722.722,0,0,1,.3.472Zm3.936-11.14a.721.721,0,0,1,.219-.564.9.9,0,0,1,.644-.207.946.946,0,0,1,.6.207.626.626,0,0,1,.265.564v.552h2.992a1.714,1.714,0,0,1,.794.184,1.525,1.525,0,0,1,.483.541,3.111,3.111,0,0,1-.023,2.025A.836.836,0,0,1,25.5,5.1a1.115,1.115,0,0,1-.621.046c-.529-.184-.7-.518-.529-1a1.444,1.444,0,0,0,.081-.633.412.412,0,0,0-.46-.265H17.981a.49.49,0,0,0-.414.127.38.38,0,0,0-.161.357v.7a.711.711,0,0,1-.242.587.986.986,0,0,1-.587.219,1.034,1.034,0,0,1-.61-.23.81.81,0,0,1-.219-.575V3.159a1.114,1.114,0,0,1,.437-.944,1.4,1.4,0,0,1,1.07-.38h2.716Zm-1.841,7.6a.848.848,0,0,1,.656-.069.77.77,0,0,1,.518.357.661.661,0,0,1,.069.621,17.1,17.1,0,0,1-1.657,3.533,1.076,1.076,0,0,1-.495.426.925.925,0,0,1-.679-.069.654.654,0,0,1-.426-.426.777.777,0,0,1,.115-.633A16.8,16.8,0,0,0,17.74,9.4a.963.963,0,0,1,.391-.518m-1.013-.737a.862.862,0,0,1-.621-.207.645.645,0,0,1-.23-.541.687.687,0,0,1,.23-.506.867.867,0,0,1,.621-.219h8.033a.9.9,0,0,1,.61.2.7.7,0,0,1,.219.529.67.67,0,0,1-.219.518.824.824,0,0,1-.61.23H22.078V13.3a1.748,1.748,0,0,1-.886,1.508,3.614,3.614,0,0,1-1.749.184c-.806-.058-1.346-.242-1.531-.552a.634.634,0,0,1-.069-.541.805.805,0,0,1,1.1-.483,2.573,2.573,0,0,0,1.277.012.531.531,0,0,0,.173-.483v-4.8ZM23.459,4.39a.864.864,0,0,1,.575.184.7.7,0,0,1,0,1.013.83.83,0,0,1-.575.219H18.4a.794.794,0,0,1-.587-.207.593.593,0,0,1-.23-.506.621.621,0,0,1,.23-.506.789.789,0,0,1,.587-.2Zm-.483,4.88a.7.7,0,0,1,.4-.414A.983.983,0,0,1,24,8.8a1,1,0,0,1,.518.46l.7,1.588c.311.748.575,1.416.76,2.025a.777.777,0,0,1-.069.61.855.855,0,0,1-.518.334.963.963,0,0,1-.621-.058.762.762,0,0,1-.391-.518,31.215,31.215,0,0,0-1.335-3.36.624.624,0,0,1-.069-.61" transform="translate(101.684 5.265)" fill="#fff"/>
  <path id="Path_1212" data-name="Path 1212" d="M12.667,6.29a1.137,1.137,0,0,1-.829-.012,1.056,1.056,0,0,1-.518-.506.784.784,0,0,1-.023-.714,1,1,0,0,1,.61-.472A22.352,22.352,0,0,0,18.778.858a1.322,1.322,0,0,1,.9-.357A1.3,1.3,0,0,1,20.5.766,20.391,20.391,0,0,0,27.191,4.46a1.02,1.02,0,0,1,.587.495.831.831,0,0,1,0,.7.882.882,0,0,1-.529.506,1.008,1.008,0,0,1-.817,0l-1.369-.529a.782.782,0,0,1-.219.737.9.9,0,0,1-.656.242l-9.08.058a1.02,1.02,0,0,1-.691-.23,1.052,1.052,0,0,1-.23-.748ZM14.485,14.6a1.539,1.539,0,0,1-1.024-.357,1.115,1.115,0,0,1-.437-.875V9.224a1.158,1.158,0,0,1,.46-.909,1.262,1.262,0,0,1,1-.368H24.716A1.318,1.318,0,0,1,26.1,9.224v4.143a1.194,1.194,0,0,1-.357.852,1.634,1.634,0,0,1-1.024.38Zm.944-5.11a.553.553,0,0,0-.449.127.547.547,0,0,0-.15.4v2.463a.6.6,0,0,0,.15.426.637.637,0,0,0,.449.15h8.24a.813.813,0,0,0,.46-.15.5.5,0,0,0,.173-.426V10.019a.469.469,0,0,0-.184-.38.662.662,0,0,0-.449-.15ZM23.75,5.012l-.76-.391c-1.1-.691-1.91-1.4-2.82-2.06a.854.854,0,0,0-.495-.184.8.8,0,0,0-.518.207,21.958,21.958,0,0,1-3.625,2.428Z" transform="translate(117.931 5.265)" fill="#fff"/>
  <path id="Path_1213" data-name="Path 1213" d="M26.839,9.068a1.22,1.22,0,0,1,.863.276.855.855,0,0,1,.311.61V13.5a.9.9,0,0,1-.38.714,1.04,1.04,0,0,1-.794.3H15.089a.871.871,0,0,1-.691-.288.906.906,0,0,1-.288-.725V9.954a.659.659,0,0,1,.288-.61.919.919,0,0,1,.691-.276h3.476V8.584h-5.1a.707.707,0,0,1-.529-.184.607.607,0,0,1-.173-.437.649.649,0,0,1,.173-.437.752.752,0,0,1,.529-.173H28.588a.865.865,0,0,1,.518.15.644.644,0,0,1,.173.46.633.633,0,0,1-.691.621h-4.9v.483ZM16.6,5.811c-.46.161-.794.173-.967.046a.556.556,0,0,1-.276-.345.587.587,0,0,1,.081-.426.774.774,0,0,1,.506-.23l1.024-.4H15.572a.539.539,0,0,1-.38-.127.454.454,0,0,1-.15-.345.365.365,0,0,1,.15-.322.5.5,0,0,1,.38-.138H17.39V2.968h-.978c-.357.322-.61.472-.783.472a.538.538,0,0,1-.437-.161.567.567,0,0,1-.184-.368.646.646,0,0,1,.253-.437,4.6,4.6,0,0,0,.656-.84H15.33a.5.5,0,0,0-.288.092.321.321,0,0,0-.1.253V5.569a.448.448,0,0,0,.138.38.659.659,0,0,0,.391.092h4.707a.708.708,0,0,1,.437.138.4.4,0,0,1,.173.357.466.466,0,0,1-.161.345.662.662,0,0,1-.449.15h-5.4a1.291,1.291,0,0,1-.909-.3,1.155,1.155,0,0,1-.334-.794V1.587a.929.929,0,0,1,.3-.714,1.036,1.036,0,0,1,.771-.242h5.639a.708.708,0,0,1,.437.138.431.431,0,0,1,.173.357.51.51,0,0,1-.161.357.662.662,0,0,1-.449.15h-3l-.2.391h2.716a.539.539,0,0,1,.38.127.443.443,0,0,1,.161.334.425.425,0,0,1-.161.334.463.463,0,0,1-.38.15h-1.1V3.52h1.715a.647.647,0,0,1,.38.115.422.422,0,0,1,.15.345.431.431,0,0,1-.15.334.532.532,0,0,1-.38.138H19.105c.817.334,1.266.621,1.335.863a.443.443,0,0,1-.092.391.778.778,0,0,1-.391.242.628.628,0,0,1-.506-.138l-1.416-.806a6.509,6.509,0,0,1-1.439.806m5.478,4.373H20.129l-.161.483a4.332,4.332,0,0,1-3.245,1.473,1.135,1.135,0,0,1-.575-.184.6.6,0,0,1-.207-.46q.052-.621.794-.621a2.249,2.249,0,0,0,1.715-.691H15.986l-.207.069a.22.22,0,0,0-.069.184v1.784H26.4V11.83h-3.13a1.208,1.208,0,0,1-.829-.311,1.392,1.392,0,0,1-.368-.944ZM15.71,13.107v.069l.092.15a.25.25,0,0,0,.184.081H26.125l.2-.081.081-.15v-.069Zm6.364-4.523h-1.9v.483h1.9Zm1.473-6.525v-.1a1.062,1.062,0,0,1-.414.748,4.106,4.106,0,0,1-1.416.633.977.977,0,0,1-.61-.046.734.734,0,0,1-.311-.437c-.035-.414.2-.656.656-.748a1.571,1.571,0,0,0,.575-.276.411.411,0,0,0,.184-.3v.012a1.126,1.126,0,0,1,.3-.714A1.275,1.275,0,0,1,23.444.54h1.922a1.275,1.275,0,0,1,.921.322,1.1,1.1,0,0,1,.38.817v.058l.046.115.138.058h.714l.138-.058.069-.127a.679.679,0,0,1,.184-.483.735.735,0,0,1,.449-.127.6.6,0,0,1,.449.138.564.564,0,0,1,.2.472v.288a.961.961,0,0,1-.161.564,1.078,1.078,0,0,1-.426.391,1.428,1.428,0,0,1-.621.115H26.4a1.063,1.063,0,0,1-.932-.472.743.743,0,0,1-.138-.495V2.047c-.023-.23-.138-.334-.4-.322h-1c-.253,0-.391.1-.38.334M22.063,4.476a.689.689,0,0,1-.472-.161.558.558,0,0,1-.173-.4.5.5,0,0,1,.173-.391.684.684,0,0,1,.472-.15H27.23a1.033,1.033,0,0,1,.725.1.7.7,0,0,1,.3.518c.035.414-.506,1-1.542,1.738l-.081.058a16.869,16.869,0,0,0,1.853.242.968.968,0,0,1,.587.207.614.614,0,0,1-.092.875c-.46.3-1.8.115-3.775-.564l-1.346.437c-1.439.311-2.3.357-2.578.115a.778.778,0,0,1-.207-.437.536.536,0,0,1,.173-.449.874.874,0,0,1,.518-.184,8.727,8.727,0,0,0,1.807-.219l-1.047-.6a.737.737,0,0,1-.311-.414l.058-.322Zm3.038.84.3-.15.656-.38V4.6c-.023-.081-.138-.127-.334-.127H23.616a10.548,10.548,0,0,0,1.485.84m1.3,5.49v-.368l-.081-.161-.2-.092h-2.44v.092a.639.639,0,0,0,.1.426.666.666,0,0,0,.368.1Z" transform="translate(134.13 5.663)" fill="#fff"/>
  <path id="Path_1214" data-name="Path 1214" d="M16.1,14.346a.8.8,0,0,1-.265.621.984.984,0,0,1-.621.207.9.9,0,0,1-.6-.219.792.792,0,0,1-.265-.61V2.17a.921.921,0,0,1,.368-.783,1.128,1.128,0,0,1,.84-.276h1.922a1.253,1.253,0,0,1,.967.23,1.167,1.167,0,0,1,.472.61.908.908,0,0,1-.058.6l-.725,2.785v.035a1.485,1.485,0,0,0,.207,1.22A5.253,5.253,0,0,1,19.3,8.822a2.382,2.382,0,0,1-.644,2.474,3.064,3.064,0,0,1-2.555.4Zm.173-11.658A.46.46,0,0,0,16.1,3.1V9.972a2.7,2.7,0,0,0,.9.265.665.665,0,0,0,.4-.092c.529-.575.38-1.577-.437-2.969a1.725,1.725,0,0,1-.483-1.657l.679-2.474c.138-.334.012-.518-.4-.518a.564.564,0,0,0-.483.161M26.416,14.679a1.922,1.922,0,0,1-.7-.38,2.371,2.371,0,0,1-.691-1.945V8.73H23.4v.806l-.161,1.128a6.394,6.394,0,0,1-3.349,3.982,2.254,2.254,0,0,1-1.554.322.921.921,0,0,1-.541-.46,1.065,1.065,0,0,1-.012-.656,1.093,1.093,0,0,1,.656-.483,5.793,5.793,0,0,0,1.208-.575,3.677,3.677,0,0,0,2-3.257V8.73H20.144a.984.984,0,0,1-.621-.207.671.671,0,0,1-.219-.541.744.744,0,0,1,.219-.518.921.921,0,0,1,.621-.207h8.792a.836.836,0,0,1,.6.2.667.667,0,0,1,.23.529.741.741,0,0,1-.23.541.9.9,0,0,1-.6.207H26.773v3.706a1.424,1.424,0,0,0,.058.541.785.785,0,0,0,.806.368c.184,0,.656.069.909-.219.184-.207.092-1,.092-1.335a.955.955,0,0,1,.242-.621,1.07,1.07,0,0,1,.633-.219,1.2,1.2,0,0,1,.621.2.932.932,0,0,1,.242.621c-.092,1.4-.138,1.956-.46,2.382-.564.725-2,.679-2.854.621a2.717,2.717,0,0,1-.644-.092M23.539,1.272a.653.653,0,0,1,.23-.552A.937.937,0,0,1,24.4.5a.919.919,0,0,1,.61.219.628.628,0,0,1,.276.552v.495h3.268a1.688,1.688,0,0,1,.771.184,1.422,1.422,0,0,1,.483.541,4.128,4.128,0,0,1-.046,2.82.9.9,0,0,1-.472.529,1.127,1.127,0,0,1-.656.046.744.744,0,0,1-.552-1.047,2.8,2.8,0,0,0,.2-1.393.413.413,0,0,0-.449-.265h-6.5a.505.505,0,0,0-.414.15.372.372,0,0,0-.161.345v1.4a.841.841,0,0,1-.242.621,1.124,1.124,0,0,1-.621.219,1.012,1.012,0,0,1-.621-.23.833.833,0,0,1-.242-.61V3.113a1.183,1.183,0,0,1,.426-.955,1.5,1.5,0,0,1,1.116-.391h2.969Zm3.51,3.2a.9.9,0,0,1,.61.2.655.655,0,0,1,.207.529.711.711,0,0,1-.207.518.824.824,0,0,1-.61.23H21.778a.881.881,0,0,1-.621-.207.674.674,0,0,1-.23-.541.621.621,0,0,1,.23-.506.886.886,0,0,1,.621-.219Z" transform="translate(150.849 5.265)" fill="#fff"/>
  <path id="Path_1215" data-name="Path 1215" d="M9.607,5a.5.5,0,0,1,.368.127.375.375,0,0,1,.138.265V6.965a.416.416,0,0,1-.161.311.468.468,0,0,1-.345.138H4.578a.446.446,0,0,1-.3-.127.519.519,0,0,1-.127-.322V5.388a.344.344,0,0,1,.127-.265A.418.418,0,0,1,4.578,5H6.063V4.79H3.98a.325.325,0,0,1-.23-.081.278.278,0,0,1,0-.391.325.325,0,0,1,.23-.081h6.33a.42.42,0,0,1,.23.069.341.341,0,0,1,.069.207.361.361,0,0,1-.069.184.3.3,0,0,1-.23.092H8.261V5ZM5.223,3.558c-.2.069-.345.081-.414.023a.3.3,0,0,1-.115-.15.275.275,0,0,1,.035-.2.356.356,0,0,1,.219-.1l.437-.173h-.6A.228.228,0,0,1,4.624,2.9a.209.209,0,0,1-.069-.161A.164.164,0,0,1,4.624,2.6a.228.228,0,0,1,.161-.058h.783V2.3H5.142a.653.653,0,0,1-.334.207.258.258,0,0,1-.265-.23.277.277,0,0,1,.1-.2,2.232,2.232,0,0,0,.288-.38H4.682l-.127.046-.046.115V3.455a.192.192,0,0,0,.058.161.277.277,0,0,0,.173.046H6.753a.293.293,0,0,1,.184.058.174.174,0,0,1,.081.161.186.186,0,0,1-.069.15.271.271,0,0,1-.2.069H4.44a.541.541,0,0,1-.391-.138.518.518,0,0,1-.138-.345V1.694a.433.433,0,0,1,.127-.322.464.464,0,0,1,.334-.1H6.788a.348.348,0,0,1,.184.058.209.209,0,0,1,.069.161.305.305,0,0,1-.058.161.3.3,0,0,1-.2.058H5.5l-.081.184H6.581a.225.225,0,0,1,.161.046.2.2,0,0,1,0,.3.193.193,0,0,1-.161.069H6.109v.242h.725a.283.283,0,0,1,.173.058.191.191,0,0,1,.058.138.2.2,0,0,1-.058.15.234.234,0,0,1-.173.069H6.293c.357.138.541.276.575.38a.237.237,0,0,1-.035.173.273.273,0,0,1-.173.1.239.239,0,0,1-.219-.058L5.833,3.2a2.493,2.493,0,0,1-.61.357M7.57,5.492H6.73l-.058.219a1.84,1.84,0,0,1-1.393.6.47.47,0,0,1-.253-.081.246.246,0,0,1-.081-.207c.012-.173.115-.276.334-.276.414-.035.656-.115.737-.253H4.958l-.081.035-.035.081v.737h4.58V6.136H8.077a.491.491,0,0,1-.506-.472ZM4.843,6.735v.081l.035.069.081.035h4.35l.081-.035.035-.069V6.735ZM7.57,4.79H6.753v.219H7.57ZM8.2,1.9V1.855a.432.432,0,0,1-.184.322,1.7,1.7,0,0,1-.6.288.4.4,0,0,1-.265-.023.282.282,0,0,1-.138-.2c-.012-.184.092-.288.288-.322A.582.582,0,0,0,7.547,1.8a.178.178,0,0,0,.081-.138v.012a.547.547,0,0,1,.127-.322.562.562,0,0,1,.4-.127h.817a.538.538,0,0,1,.391.15.465.465,0,0,1,.173.357v.023l.023.058.058.023h.3l.058-.023.035-.058a.287.287,0,0,1,.081-.219.329.329,0,0,1,.2-.058.227.227,0,0,1,.184.069.218.218,0,0,1,.081.207v.127a.436.436,0,0,1-.058.253.533.533,0,0,1-.184.173.662.662,0,0,1-.276.046h-.61a.458.458,0,0,1-.4-.207.316.316,0,0,1-.058-.219V1.889c-.012-.1-.058-.15-.173-.138H8.364c-.115,0-.173.046-.161.15m-.644,1.07a.3.3,0,0,1-.2-.081.25.25,0,0,1,0-.345.29.29,0,0,1,.2-.069H9.78a.427.427,0,0,1,.311.046.308.308,0,0,1,.127.23c.012.184-.219.449-.656.771l-.046.023a4.886,4.886,0,0,0,.748.1.4.4,0,0,1,.253.1.225.225,0,0,1,.058.2.224.224,0,0,1-.092.184c-.2.138-.725.058-1.565-.253l-.587.2c-.61.138-.978.161-1.1.046a.272.272,0,0,1-.081-.184.254.254,0,0,1,.069-.207.415.415,0,0,1,.219-.081A3.219,3.219,0,0,0,8.2,3.558l-.437-.265a.341.341,0,0,1-.138-.184l.023-.138Zm1.312.368L9,3.271,9.274,3.1V3.017c-.012-.023-.058-.046-.138-.046H8.226a4.761,4.761,0,0,0,.644.368m.552,2.382V5.607l-.035-.069-.081-.046H8.261v.046a.148.148,0,0,0,.046.138l.15.046Z" transform="translate(38.556 12.841)" fill="#fff"/>
  <path id="Path_1216" data-name="Path 1216" d="M7.063,6.2a.377.377,0,0,1-.288-.127.424.424,0,0,1-.127-.334v-1.2a.611.611,0,0,1-.46,0l-.1-.069v.012a4.868,4.868,0,0,1-.506,2.233c-.322.587-.587.9-.794.909a.372.372,0,0,1-.253-.081c-.173-.138-.173-.3-.023-.483A4.082,4.082,0,0,0,5.36,4.912L5,5.2a.385.385,0,0,1-.265.069A.3.3,0,0,1,4.5,5.142.316.316,0,0,1,4.427,4.9a.249.249,0,0,1,.138-.219,5.837,5.837,0,0,0,.806-.691l.035-.023v-1.8a.506.506,0,0,1,.127-.391.588.588,0,0,1,.449-.15H7.949V1.551A.3.3,0,0,1,8.041,1.3a.42.42,0,0,1,.276-.092.434.434,0,0,1,.265.092.306.306,0,0,1,.1.253v.081h2.463a.481.481,0,0,1,.265.081.288.288,0,0,1,.092.207.277.277,0,0,1-.092.219.535.535,0,0,1-.265.069H8.985V2.23l-.035.242h2.118a.271.271,0,0,1,.2.069.246.246,0,0,1,.092.2.259.259,0,0,1-.092.184.278.278,0,0,1-.2.081H9.192l.391.345.058-.023a3.862,3.862,0,0,0,.817-.253.427.427,0,0,1,.265-.023.272.272,0,0,1,.161.138.251.251,0,0,1,.023.219c-.035.081-.242.2-.61.322a3.432,3.432,0,0,0,.9.184.424.424,0,0,1,.265.138.282.282,0,0,1,.058.23.253.253,0,0,1-.138.2,1.025,1.025,0,0,1-.61,0V5.74a.425.425,0,0,1-.15.322.568.568,0,0,1-.345.138H9v.748a.7.7,0,0,1-.092.368.682.682,0,0,1-.575.38c-.621-.023-.967-.127-1.07-.276a.38.38,0,0,1-.023-.253.292.292,0,0,1,.184-.184.379.379,0,0,1,.3-.012l.38.058.1-.023a.3.3,0,0,0,.081-.23V6.2ZM4.45,1.873a.346.346,0,0,1,.184-.15.38.38,0,0,1,.253.012.318.318,0,0,1,.173.207l.046.173c.173.667.23,1.059.15,1.174a.3.3,0,0,1-.207.1.4.4,0,0,1-.242-.046A.356.356,0,0,1,4.681,3.1a5.553,5.553,0,0,0-.23-.978.278.278,0,0,1,0-.253M7.212,6.293a.356.356,0,0,1,.242.092.342.342,0,0,1,.092.23.327.327,0,0,1-.15.23,3.807,3.807,0,0,1-1.462.737.386.386,0,0,1-.288-.023.285.285,0,0,1-.161-.184.347.347,0,0,1,.023-.242.355.355,0,0,1,.253-.15,3.249,3.249,0,0,0,1.174-.6.383.383,0,0,1,.276-.092m.311-2.831A1.751,1.751,0,0,0,8.018,3H6.487a.307.307,0,0,1-.207-.081A.272.272,0,0,1,6.2,2.737a.3.3,0,0,1,.081-.2.37.37,0,0,1,.207-.069H8.271l.023-.242V2.207H6.257a.141.141,0,0,0-.127.035l-.046.115V4.095a.4.4,0,0,1,.242-.127l.61-.2L6.591,3.6a.323.323,0,0,1-.184-.161.291.291,0,0,1,.012-.219.234.234,0,0,1,.161-.15.393.393,0,0,1,.253.023,3.717,3.717,0,0,1,.691.368M10.09,4.843V4.636l-.035-.081L9.974,4.52H7.443l-.081.035-.023.081v.207Zm-2.751.518v.219l.023.069.081.035H9.974l.081-.035.035-.069V5.361ZM9.526,4A5.378,5.378,0,0,1,8.64,3.22,4.369,4.369,0,0,1,7.834,4Zm.046,2.716a.343.343,0,0,1,.035-.253A.348.348,0,0,1,9.825,6.3a.4.4,0,0,1,.3.035,6.805,6.805,0,0,1,1.174.737.4.4,0,0,1,.15.23.346.346,0,0,1-.092.253.358.358,0,0,1-.242.127.492.492,0,0,1-.3-.115A6.432,6.432,0,0,0,9.79,6.926a.48.48,0,0,1-.219-.207" transform="translate(46.221 12.673)" fill="#fff"/>
  <path id="Path_1217" data-name="Path 1217" d="M5.682,5.683a.411.411,0,0,1-.265.058.326.326,0,0,1-.242-.173.4.4,0,0,1,.2-.529c.357-.23.667-.46.944-.679A3.241,3.241,0,0,0,7.454,2.99l-.023-.069L7.339,2.9H5.7a.373.373,0,0,1-.276-.1.331.331,0,0,1-.1-.242.321.321,0,0,1,.1-.253A.416.416,0,0,1,5.7,2.219h.817V1.551A.379.379,0,0,1,6.614,1.3a.42.42,0,0,1,.276-.092.41.41,0,0,1,.265.092.349.349,0,0,1,.115.253v.667h.541a.552.552,0,0,1,.449.2.449.449,0,0,1,.023.483A5.358,5.358,0,0,1,7.235,4.463V7.305a.341.341,0,0,1-.115.276.358.358,0,0,1-.253.092.384.384,0,0,1-.276-.092A.42.42,0,0,1,6.5,7.305V5.119c-.276.207-.552.4-.817.564m1.7-1.059a.329.329,0,0,1,.069-.242A.432.432,0,0,1,7.7,4.244a.484.484,0,0,1,.3.092l.564.472c.311.253.472.472.46.587a.3.3,0,0,1-.127.23.461.461,0,0,1-.265.092.472.472,0,0,1-.276-.15,9.739,9.739,0,0,0-.806-.7.342.342,0,0,1-.161-.242m2.451-1.5H8.8a.42.42,0,0,1-.276-.092.3.3,0,0,1-.1-.242.331.331,0,0,1,.1-.242A.367.367,0,0,1,8.8,2.46H9.836V1.574a.338.338,0,0,1,.1-.253.356.356,0,0,1,.276-.1.412.412,0,0,1,.276.1.311.311,0,0,1,.115.253V2.46h1.059a.384.384,0,0,1,.265.081.306.306,0,0,1,.1.253.326.326,0,0,1-.1.23.347.347,0,0,1-.265.1H10.607V6.765H11.9a.365.365,0,0,1,.265.081.338.338,0,0,1,.1.253.354.354,0,0,1-.368.345H8.421a.42.42,0,0,1-.276-.092A.379.379,0,0,1,8.052,7.1a.321.321,0,0,1,.092-.23.373.373,0,0,1,.276-.1H9.836Z" transform="translate(53.967 12.673)" fill="#fff"/>
  <path id="Path_1218" data-name="Path 1218" d="M6.556,7.3a.741.741,0,0,1-.449-.184A.528.528,0,0,1,5.9,6.693V1.836A.571.571,0,0,1,6.1,1.4a.673.673,0,0,1,.46-.173h5.225a.6.6,0,0,1,.495.2.637.637,0,0,1,.161.414V6.693a.626.626,0,0,1-.184.414.7.7,0,0,1-.472.2ZM7.8,5.806h-.76a.313.313,0,0,1-.23-.081.258.258,0,0,1-.081-.2.3.3,0,0,1,.081-.184.313.313,0,0,1,.23-.081H10.2V4.989l-3.038.1a.319.319,0,0,1-.242-.058.363.363,0,0,1-.1-.2.321.321,0,0,1,.069-.207.372.372,0,0,1,.253-.081l1.7-.058V4.322H7.431A.377.377,0,0,1,7.143,4.2a.417.417,0,0,1-.127-.311V3a.333.333,0,0,1,.115-.265.367.367,0,0,1,.3-.115H8.846V2.481H7.039a.281.281,0,0,1-.207-.069.223.223,0,0,1-.081-.2.245.245,0,0,1,.081-.184.341.341,0,0,1,.207-.069H8.846V1.8H6.89a.17.17,0,0,0-.184.081.2.2,0,0,0-.081.161V6.5a.227.227,0,0,0,.069.161.271.271,0,0,0,.2.069H9.824a1.067,1.067,0,0,1-.564-.219.373.373,0,0,1-.023-.253.309.309,0,0,1,.15-.207A.407.407,0,0,1,9.7,6.037a1.03,1.03,0,0,0,.4.023.174.174,0,0,0,.1-.173V5.806H8.386c.311.253.472.449.46.587a.24.24,0,0,1-.127.2.254.254,0,0,1-.23.058.315.315,0,0,1-.23-.127A2.857,2.857,0,0,0,7.9,6.186a.346.346,0,0,1-.15-.219A.233.233,0,0,1,7.8,5.806M8.846,3.09H7.822l-.092.023-.023.081v.115H8.846Zm0,.575H7.707v.081l.035.081.081.035H8.846Zm2.037,2.371a.632.632,0,0,1-.115.368.911.911,0,0,1-.529.322H11.47a.3.3,0,0,0,.184-.081.219.219,0,0,0,.058-.15V2.043a.226.226,0,0,0-.058-.173A.282.282,0,0,0,11.47,1.8H9.525v.161h1.738a.321.321,0,0,1,.207.069.251.251,0,0,1,0,.368.277.277,0,0,1-.207.081H9.525v.138H10.8a.463.463,0,0,1,.357.115A.375.375,0,0,1,11.3,3v.886a.325.325,0,0,1-.127.265c.38.4.552.679.506.84a.307.307,0,0,1-.15.173.322.322,0,0,1-.23.023.584.584,0,0,1-.242-.207h-.173v.288h.437a.312.312,0,0,1,.219.069.278.278,0,0,1,0,.391.271.271,0,0,1-.219.081h-.437ZM9.525,3.309h1.082V3.194l-.035-.069-.081-.035H9.525Zm0,.552h.967l.081-.035.035-.081V3.666H9.525Zm1.059.46H9.525v.15l1.128-.035Z" transform="translate(62 12.872)" fill="#fff"/>
  <path id="Path_1219" data-name="Path 1219" d="M8.088,4.8a.375.375,0,0,1,.276-.035.527.527,0,0,1,.242.161.44.44,0,0,1,.012.3,6.132,6.132,0,0,1-.6,1.312c-.4.679-.748,1.036-.99,1.047a.527.527,0,0,1-.276-.092.323.323,0,0,1,0-.529A4.617,4.617,0,0,0,7.9,5.029a.345.345,0,0,1,.184-.23M6.776,3.567a.337.337,0,0,1,.046-.253.384.384,0,0,1,.219-.184.443.443,0,0,1,.311.046,4.714,4.714,0,0,1,.967.61.3.3,0,0,1,.161.242.284.284,0,0,1-.092.253.374.374,0,0,1-.253.138.468.468,0,0,1-.3-.115,4.61,4.61,0,0,0-.829-.518.532.532,0,0,1-.23-.219m.23-1.784a.267.267,0,0,1,.069-.253.252.252,0,0,1,.219-.161.445.445,0,0,1,.311.058,5.394,5.394,0,0,1,.944.691.466.466,0,0,1,.138.253.374.374,0,0,1-.368.357A.515.515,0,0,1,8.008,2.6,5.078,5.078,0,0,0,7.213,2a.381.381,0,0,1-.207-.219M8.64,7.5A.517.517,0,0,1,8.3,7.434a.4.4,0,0,1-.138-.265.333.333,0,0,1,.081-.276.456.456,0,0,1,.334-.15l.449-.035a17.259,17.259,0,0,0,1.2-2.129H8.905a.34.34,0,0,1-.276-.1.282.282,0,0,1-.1-.242.331.331,0,0,1,.1-.242.34.34,0,0,1,.276-.1h1.761v-1.1H9.124a.325.325,0,0,1-.265-.092.313.313,0,0,1-.1-.242.354.354,0,0,1,.368-.345h1.542V1.553a.321.321,0,0,1,.1-.253.379.379,0,0,1,.276-.092A.4.4,0,0,1,11.3,1.3a.3.3,0,0,1,.115.253v.552h1.68a.388.388,0,0,1,.265.092.306.306,0,0,1,.1.253.326.326,0,0,1-.1.23.31.31,0,0,1-.265.1h-1.68v1.1h1.91a.388.388,0,0,1,.265.092.321.321,0,0,1,.1.253.29.29,0,0,1-.1.23.318.318,0,0,1-.265.115H11.069A16.224,16.224,0,0,1,9.918,6.64l2.532-.219c-.2-.322-.38-.6-.541-.829a.316.316,0,0,1-.092-.288.278.278,0,0,1,.161-.207.338.338,0,0,1,.276-.069.411.411,0,0,1,.265.173,10.113,10.113,0,0,1,1.139,1.968.29.29,0,0,1,.023.288.385.385,0,0,1-.207.2.411.411,0,0,1-.288,0,.449.449,0,0,1-.219-.219L12.8,7.077Z" transform="translate(69.513 12.694)" fill="#fff"/>
  <path id="Path_1220" data-name="Path 1220" d="M8.618,7.226c-.46.3-.783.426-.944.38a.377.377,0,0,1-.265-.173.4.4,0,0,1-.046-.3A.4.4,0,0,1,7.6,6.881c.15-.081.311-.184.518-.322l.035-.035a5.487,5.487,0,0,0,2.336-4.753V1.644a.39.39,0,0,1,.127-.311.424.424,0,0,1,.3-.127.664.664,0,0,1,.311.1.46.46,0,0,1,.127.334v.161a4.635,4.635,0,0,0,.806,3.1,6.707,6.707,0,0,0,2.095,1.991.451.451,0,0,1,.2.288.36.36,0,0,1-.081.311.5.5,0,0,1-.3.15.584.584,0,0,1-.368-.1,8,8,0,0,1-2.774-3.418A6.16,6.16,0,0,1,8.618,7.226" transform="translate(77.259 12.684)" fill="#fff"/>
  <path id="Path_1221" data-name="Path 1221" d="M5.913,4.131a.465.465,0,0,1-.288-.058.335.335,0,0,1-.138-.207.317.317,0,0,1,.058-.23A.489.489,0,0,1,5.81,3.5h.1l.564-.679A4.955,4.955,0,0,0,5.683,2.2.393.393,0,0,1,5.5,1.99a.264.264,0,0,1,.035-.242.389.389,0,0,1,.207-.15.471.471,0,0,1,.276.046A10.511,10.511,0,0,0,6.512.69.46.46,0,0,1,6.731.517.317.317,0,0,1,7,.552a.415.415,0,0,1,.173.173c.035.15-.184.575-.633,1.289l.3.265a9.216,9.216,0,0,0,.437-.9.39.39,0,0,1,.184-.219A.41.41,0,0,1,7.72,1.15a.393.393,0,0,1,.2.161.355.355,0,0,1,.023.2A5.654,5.654,0,0,1,6.811,3.394l.621-.069a.993.993,0,0,1-.115-.495.351.351,0,0,1,.437-.184.309.309,0,0,1,.2.184l.207.518c.173.426.23.691.15.794a.328.328,0,0,1-.207.15.47.47,0,0,1-.253-.035.494.494,0,0,1-.184-.334l-.4.058V6.663a.321.321,0,0,1-.1.253.391.391,0,0,1-.242.1.487.487,0,0,1-.265-.092.388.388,0,0,1-.092-.265V4.05Zm-.092.334a.375.375,0,0,1,.219-.092.5.5,0,0,1,.23.081.353.353,0,0,1,.069.242v.058a4.729,4.729,0,0,1-.345,1.726A.356.356,0,0,1,5.557,6.4a.284.284,0,0,1-.035-.242,6.34,6.34,0,0,0,.207-1.473.3.3,0,0,1,.092-.219M8.215,5.776a.3.3,0,0,1-.058.23.258.258,0,0,1-.207.1.394.394,0,0,1-.207-.046.282.282,0,0,1-.127-.207L7.444,4.695a.327.327,0,0,1,.046-.219.311.311,0,0,1,.2-.115.456.456,0,0,1,.23.046.305.305,0,0,1,.127.207ZM9.9.851A.379.379,0,0,1,9.987.6a.42.42,0,0,1,.276-.092A.434.434,0,0,1,10.528.6a.3.3,0,0,1,.1.253v.242h1.289a.681.681,0,0,1,.334.081.512.512,0,0,1,.207.242,1.389,1.389,0,0,1,0,.9.39.39,0,0,1-.2.23A.414.414,0,0,1,12,2.554c-.23-.081-.311-.219-.23-.437a.71.71,0,0,0,.035-.276.187.187,0,0,0-.2-.127H9.044a.234.234,0,0,0-.173.069.139.139,0,0,0-.069.15v.311a.347.347,0,0,1-.1.265.483.483,0,0,1-.253.092.461.461,0,0,1-.265-.1.379.379,0,0,1-.092-.253V1.679a.482.482,0,0,1,.184-.414.6.6,0,0,1,.46-.173H9.9Zm-.783,3.36a.389.389,0,0,1,.506.127.317.317,0,0,1,.023.276,7.478,7.478,0,0,1-.714,1.565.449.449,0,0,1-.207.184.405.405,0,0,1-.288-.023.3.3,0,0,1-.2-.2A.43.43,0,0,1,8.3,5.869,7.778,7.778,0,0,0,8.94,4.442a.4.4,0,0,1,.173-.23m-.437-.322A.368.368,0,0,1,8.411,3.8a.3.3,0,0,1-.1-.242.326.326,0,0,1,.1-.23.368.368,0,0,1,.265-.092h3.441a.356.356,0,0,1,.265.092.334.334,0,0,1,0,.46.365.365,0,0,1-.265.1H10.8V6.168a.786.786,0,0,1-.38.667,1.571,1.571,0,0,1-.748.081c-.357-.023-.587-.1-.667-.242a.354.354,0,0,1-.023-.242.346.346,0,0,1,.472-.219,1.218,1.218,0,0,0,.552.012.266.266,0,0,0,.069-.219V3.889ZM11.392,2.22a.405.405,0,0,1,.242.081.29.29,0,0,1,.1.23.267.267,0,0,1-.1.219.313.313,0,0,1-.242.1H9.216a.33.33,0,0,1-.242-.092.274.274,0,0,1-.1-.23.283.283,0,0,1,.1-.219.33.33,0,0,1,.242-.092Zm-.207,2.164a.3.3,0,0,1,.173-.184.427.427,0,0,1,.265-.023.4.4,0,0,1,.219.2l.311.714c.127.322.242.621.322.9a.345.345,0,0,1-.035.265.316.316,0,0,1-.219.15.414.414,0,0,1-.265-.023.388.388,0,0,1-.173-.23c-.1-.357-.3-.852-.564-1.5a.277.277,0,0,1-.035-.265" transform="translate(57.636 5.283)" fill="#fff"/>
  <path id="Path_1222" data-name="Path 1222" d="M7.948,3.005a.478.478,0,0,1-.357,0,.525.525,0,0,1-.219-.23.366.366,0,0,1,0-.311.39.39,0,0,1,.253-.207A9.065,9.065,0,0,0,10.5.669a.59.59,0,0,1,.391-.161.6.6,0,0,1,.357.115A8.682,8.682,0,0,0,14.174,2.2a.437.437,0,0,1,.253.219.366.366,0,0,1,0,.311.389.389,0,0,1-.23.219.366.366,0,0,1-.345,0l-.587-.23a.335.335,0,0,1-.092.322.373.373,0,0,1-.288.1H9.041a.424.424,0,0,1-.3-.092.525.525,0,0,1-.092-.334Zm.783,3.683a.64.64,0,0,1-.437-.161.455.455,0,0,1-.184-.391V4.306a.5.5,0,0,1,.2-.4.51.51,0,0,1,.426-.161h4.385a.516.516,0,0,1,.437.184.622.622,0,0,1,.161.38v1.83a.514.514,0,0,1-.161.38.722.722,0,0,1-.437.173Zm.4-2.267a.2.2,0,0,0-.184.058.234.234,0,0,0-.069.173V5.744A.224.224,0,0,0,9.133,6h3.533a.329.329,0,0,0,.2-.058.252.252,0,0,0,.081-.2V4.651a.22.22,0,0,0-.081-.161.29.29,0,0,0-.2-.069ZM12.7,2.441l-.322-.173a5.978,5.978,0,0,1-1.266-.852.368.368,0,0,0-.219-.081.314.314,0,0,0-.219.092,8.5,8.5,0,0,1-1.5,1.013Z" transform="translate(77.111 5.338)" fill="#fff"/>
  <path id="Path_1223" data-name="Path 1223" d="M5.4,9.061V2.823H3.664V1.995H7.842v.829H6.1V9.061Z" transform="translate(38.506 20.962)" fill="#fff"/>
  <path id="Path_1224" data-name="Path 1224" d="M6.619,7.285V6.537a1.681,1.681,0,0,1-.529.644,1.09,1.09,0,0,1-.679.219,1.182,1.182,0,0,1-.771-.265,1.252,1.252,0,0,1-.426-.679A4.144,4.144,0,0,1,4.1,5.34V2.164h.644V5.007a4.255,4.255,0,0,0,.081,1.059.818.818,0,0,0,.265.426.692.692,0,0,0,.449.161.908.908,0,0,0,.76-.414A2.464,2.464,0,0,0,6.55,4.9V2.164h.644V7.285Z" transform="translate(43.074 22.74)" fill="#fff"/>
  <path id="Path_1225" data-name="Path 1225" d="M4.5,7.39V2.269h.587v.725a1.6,1.6,0,0,1,.506-.633,1.228,1.228,0,0,1,.7-.207,1.308,1.308,0,0,1,.564.127,1.179,1.179,0,0,1,.426.357,1.537,1.537,0,0,1,.242.552,5.779,5.779,0,0,1,.069,1.047V7.39H6.95V4.272a2.906,2.906,0,0,0-.081-.829.794.794,0,0,0-.276-.4A.708.708,0,0,0,6.156,2.9a.862.862,0,0,0-.737.38,2.315,2.315,0,0,0-.276,1.312v2.8Z" transform="translate(47.278 22.635)" fill="#fff"/>
  <path id="Path_1226" data-name="Path 1226" d="M5.014,7.815l.621.127a1.037,1.037,0,0,0,.265.621.923.923,0,0,0,.61.2.984.984,0,0,0,.679-.219,1.162,1.162,0,0,0,.345-.667,7.489,7.489,0,0,0,.058-1.139,1.629,1.629,0,0,1-.472.495,1.034,1.034,0,0,1-.587.173,1.366,1.366,0,0,1-1.139-.644A3.312,3.312,0,0,1,4.876,4.8a4.259,4.259,0,0,1,.23-1.45,2.091,2.091,0,0,1,.6-.909,1.4,1.4,0,0,1,.84-.288,1.149,1.149,0,0,1,.61.184,1.8,1.8,0,0,1,.495.552V2.268h.6V6.7a5.368,5.368,0,0,1-.184,1.692A1.521,1.521,0,0,1,6.533,9.472a1.474,1.474,0,0,1-1.139-.437,1.691,1.691,0,0,1-.38-1.22m.529-3.073a2.821,2.821,0,0,0,.3,1.473.877.877,0,0,0,.748.46.9.9,0,0,0,.748-.449,2.609,2.609,0,0,0,.311-1.45,2.661,2.661,0,0,0-.322-1.439.925.925,0,0,0-.771-.472.853.853,0,0,0-.7.472,2.591,2.591,0,0,0-.311,1.4" transform="translate(51.239 22.625)" fill="#fff"/>
  <path id="Path_1227" data-name="Path 1227" d="M5.275,5.859l.644-.138a1.269,1.269,0,0,0,.311.806.868.868,0,0,0,.679.265.836.836,0,0,0,.644-.23.79.79,0,0,0,.23-.575.6.6,0,0,0-.2-.472,2.294,2.294,0,0,0-.656-.288,4.864,4.864,0,0,1-1.013-.437,1.091,1.091,0,0,1-.391-.483,1.59,1.59,0,0,1-.138-.679,1.474,1.474,0,0,1,.38-1.059,1.353,1.353,0,0,1,1.059-.414,1.514,1.514,0,0,1,.737.173,1.254,1.254,0,0,1,.495.449,2.154,2.154,0,0,1,.242.817l-.633.115c-.058-.564-.334-.84-.829-.84a.873.873,0,0,0-.621.184.62.62,0,0,0-.207.472.519.519,0,0,0,.2.449,2.86,2.86,0,0,0,.7.311,4.563,4.563,0,0,1,1.036.449,1.012,1.012,0,0,1,.368.449,1.609,1.609,0,0,1,.127.691,1.691,1.691,0,0,1-.414,1.185A1.526,1.526,0,0,1,6.863,7.5c-.909,0-1.439-.541-1.588-1.646" transform="translate(55.432 22.625)" fill="#fff"/>
  <path id="Path_1228" data-name="Path 1228" d="M6.219,4.434h-.4L5.643,2.006h.748Z" transform="translate(59.3 21.078)" fill="#fff"/>
  <path id="Path_1229" data-name="Path 1229" d="M7.67,9.061V2.823H5.932V1.995H10.11v.829H8.372V9.061Z" transform="translate(62.341 20.962)" fill="#fff"/>
  <path id="Path_1230" data-name="Path 1230" d="M9.018,6.756a2.49,2.49,0,0,1-.679.564,1.509,1.509,0,0,1-.725.184,1.217,1.217,0,0,1-.955-.391A1.524,1.524,0,0,1,6.3,6.043a1.738,1.738,0,0,1,.173-.783,1.2,1.2,0,0,1,.449-.529A2.044,2.044,0,0,1,7.8,4.443,3.974,3.974,0,0,0,8.96,4.132V3.914A1.29,1.29,0,0,0,8.8,3.177a.893.893,0,0,0-.748-.311.978.978,0,0,0-.679.207,1.422,1.422,0,0,0-.322.771L6.417,3.73a1.942,1.942,0,0,1,.541-1.2,1.717,1.717,0,0,1,1.2-.38,1.5,1.5,0,0,1,.932.253,1.037,1.037,0,0,1,.437.61,5.036,5.036,0,0,1,.092,1.07V5.249c0,.806.012,1.323.035,1.531a2.833,2.833,0,0,0,.173.61H9.145a1.925,1.925,0,0,1-.127-.633M8.96,4.823A3.962,3.962,0,0,1,7.9,5.157a1.631,1.631,0,0,0-.564.173.65.65,0,0,0-.253.276.993.993,0,0,0-.092.414.794.794,0,0,0,.207.587.721.721,0,0,0,.564.219,1.033,1.033,0,0,0,.633-.2A1.213,1.213,0,0,0,8.822,6.1a2.579,2.579,0,0,0,.138-.955Z" transform="translate(66.224 22.625)" fill="#fff"/>
  <path id="Path_1231" data-name="Path 1231" d="M6.72,1.994h.644V3H6.72Zm0,1.945h.644V9.06H6.72Z" transform="translate(70.617 20.954)" fill="#fff"/>
  <path id="Path_1232" data-name="Path 1232" d="M9.581,5.514l.633.115a2.379,2.379,0,0,1-.552,1.393A1.371,1.371,0,0,1,8.6,7.505a1.471,1.471,0,0,1-1.231-.679,3.427,3.427,0,0,1-.483-2,3.338,3.338,0,0,1,.495-2,1.47,1.47,0,0,1,1.254-.667,1.354,1.354,0,0,1,.99.4,2.106,2.106,0,0,1,.529,1.22L9.523,3.9A1.592,1.592,0,0,0,9.2,3.121a.691.691,0,0,0-.541-.253.92.92,0,0,0-.794.46,2.743,2.743,0,0,0-.311,1.485,2.822,2.822,0,0,0,.3,1.508.861.861,0,0,0,.771.472.784.784,0,0,0,.621-.311,1.8,1.8,0,0,0,.334-.967" transform="translate(72.382 22.635)" fill="#fff"/>
  <path id="Path_1233" data-name="Path 1233" d="M7.268,9.061V1.995h.644V4.527A1.63,1.63,0,0,1,8.43,4a1.188,1.188,0,0,1,.633-.173,1.156,1.156,0,0,1,.955.426,2.5,2.5,0,0,1,.357,1.565V9.061H9.731V5.816a1.58,1.58,0,0,0-.219-.955.671.671,0,0,0-.587-.288.9.9,0,0,0-.714.368,2.2,2.2,0,0,0-.3,1.312V9.061Z" transform="translate(76.376 20.964)" fill="#fff"/>
  <path id="Path_1234" data-name="Path 1234" d="M10.185,7.285V6.537a1.681,1.681,0,0,1-.529.644,1.09,1.09,0,0,1-.679.219,1.182,1.182,0,0,1-.771-.265,1.252,1.252,0,0,1-.426-.679A4.144,4.144,0,0,1,7.665,5.34V2.164h.644V5.007A4.256,4.256,0,0,0,8.39,6.065a.818.818,0,0,0,.265.426.692.692,0,0,0,.449.161.908.908,0,0,0,.76-.414A2.464,2.464,0,0,0,10.116,4.9V2.164h.644V7.285Z" transform="translate(80.547 22.74)" fill="#fff"/>
  <path id="Path_1235" data-name="Path 1235" d="M8.066,7.39V2.269h.587v.725a1.6,1.6,0,0,1,.506-.633,1.228,1.228,0,0,1,.7-.207,1.308,1.308,0,0,1,.564.127,1.179,1.179,0,0,1,.426.357,1.537,1.537,0,0,1,.242.552,5.779,5.779,0,0,1,.069,1.047V7.39h-.644V4.272a2.906,2.906,0,0,0-.081-.829.794.794,0,0,0-.276-.4A.708.708,0,0,0,9.723,2.9a.862.862,0,0,0-.737.38A2.315,2.315,0,0,0,8.71,4.594v2.8Z" transform="translate(84.761 22.635)" fill="#fff"/>
  <path id="Path_1236" data-name="Path 1236" d="M8.58,7.815l.621.127a1.037,1.037,0,0,0,.265.621.923.923,0,0,0,.61.2.984.984,0,0,0,.679-.219,1.162,1.162,0,0,0,.345-.667,7.491,7.491,0,0,0,.058-1.139,1.629,1.629,0,0,1-.472.495A1.034,1.034,0,0,1,10.1,7.4,1.366,1.366,0,0,1,8.96,6.756,3.312,3.312,0,0,1,8.442,4.8a4.26,4.26,0,0,1,.23-1.45,2.091,2.091,0,0,1,.6-.909,1.392,1.392,0,0,1,.829-.288,1.158,1.158,0,0,1,.621.184,1.8,1.8,0,0,1,.495.552V2.268h.6V6.7a5.369,5.369,0,0,1-.184,1.692A1.521,1.521,0,0,1,10.1,9.472,1.474,1.474,0,0,1,8.96,9.035a1.691,1.691,0,0,1-.38-1.22m.529-3.073a2.821,2.821,0,0,0,.3,1.473.877.877,0,0,0,.748.46.9.9,0,0,0,.748-.449,2.609,2.609,0,0,0,.311-1.45,2.661,2.661,0,0,0-.322-1.439.925.925,0,0,0-.771-.472.853.853,0,0,0-.7.472,2.591,2.591,0,0,0-.311,1.4" transform="translate(88.712 22.625)" fill="#fff"/>
  <path id="Path_1237" data-name="Path 1237" d="M9.015,9.061V1.995h1.047L11.317,7l.253,1.047q.086-.4.276-1.139l1.266-4.914h.932V9.061h-.667V3.146L11.846,9.061h-.633L9.682,3.042V9.061Z" transform="translate(94.734 20.964)" fill="#fff"/>
  <path id="Path_1238" data-name="Path 1238" d="M12.4,5.744l.667.115a2.266,2.266,0,0,1-.61,1.231,1.494,1.494,0,0,1-1.082.414,1.555,1.555,0,0,1-1.312-.667,3.277,3.277,0,0,1-.495-1.956,3.354,3.354,0,0,1,.506-2.025,1.489,1.489,0,0,1,2.52-.012,3.391,3.391,0,0,1,.495,1.979l-.012.23H10.233a2.3,2.3,0,0,0,.357,1.3.949.949,0,0,0,.794.437c.483,0,.817-.345,1.013-1.047m-2.129-1.4H12.4a2.055,2.055,0,0,0-.253-.99.92.92,0,0,0-.794-.483.936.936,0,0,0-.748.4,1.936,1.936,0,0,0-.334,1.07" transform="translate(100.524 22.625)" fill="#fff"/>
  <path id="Path_1239" data-name="Path 1239" d="M11.727,8.142l.092.771a2.029,2.029,0,0,1-.483.069.982.982,0,0,1-.552-.138.753.753,0,0,1-.276-.4,3.988,3.988,0,0,1-.081-1.024V4.471H9.955V3.792h.472V2.526l.644-.518V3.792h.656v.679h-.656V7.463A1.68,1.68,0,0,0,11.129,8a.316.316,0,0,0,.311.173,1.483,1.483,0,0,0,.288-.035" transform="translate(104.612 21.101)" fill="#fff"/>
  <path id="Path_1240" data-name="Path 1240" d="M10.205,7.39V2.269h.587V3.04a2.193,2.193,0,0,1,.4-.714.611.611,0,0,1,.426-.173,1.046,1.046,0,0,1,.656.276l-.219.806a.744.744,0,0,0-.472-.184.49.49,0,0,0-.368.161.853.853,0,0,0-.242.437,4.522,4.522,0,0,0-.127,1.059V7.39Z" transform="translate(107.239 22.635)" fill="#fff"/>
  <path id="Path_1241" data-name="Path 1241" d="M10.439,4.824a3.334,3.334,0,0,1,.506-2,1.567,1.567,0,0,1,2.566,0,3.172,3.172,0,0,1,.506,1.956,3.424,3.424,0,0,1-.495,2.049,1.57,1.57,0,0,1-1.289.679,1.535,1.535,0,0,1-1.277-.679,3.251,3.251,0,0,1-.518-2m.667,0a2.672,2.672,0,0,0,.334,1.485.951.951,0,0,0,.806.483.906.906,0,0,0,.783-.495,2.655,2.655,0,0,0,.334-1.473,2.655,2.655,0,0,0-.334-1.473.955.955,0,0,0-.817-.483.945.945,0,0,0-.783.483,2.664,2.664,0,0,0-.322,1.473" transform="translate(109.698 22.635)" fill="#fff"/>
  <path id="Path_1242" data-name="Path 1242" d="M10.867,9.061V1.995h.7v2.9h2.739v-2.9H15V9.061h-.691V5.723H11.569V9.061Z" transform="translate(114.198 20.962)" fill="#fff"/>
  <path id="Path_1243" data-name="Path 1243" d="M14.061,6.756a2.49,2.49,0,0,1-.679.564,1.509,1.509,0,0,1-.725.184,1.217,1.217,0,0,1-.955-.391,1.524,1.524,0,0,1-.357-1.07,1.738,1.738,0,0,1,.173-.783,1.2,1.2,0,0,1,.449-.529,2.044,2.044,0,0,1,.875-.288A3.974,3.974,0,0,0,14,4.132V3.914a1.29,1.29,0,0,0-.161-.737.893.893,0,0,0-.748-.311.978.978,0,0,0-.679.207,1.422,1.422,0,0,0-.322.771L11.46,3.73A1.942,1.942,0,0,1,12,2.533a1.717,1.717,0,0,1,1.2-.38,1.5,1.5,0,0,1,.932.253,1.037,1.037,0,0,1,.437.61,5.036,5.036,0,0,1,.092,1.07V5.249c0,.806.012,1.323.035,1.531a2.833,2.833,0,0,0,.173.61h-.679a1.925,1.925,0,0,1-.127-.633M14,4.823a3.962,3.962,0,0,1-1.059.334,1.631,1.631,0,0,0-.564.173.65.65,0,0,0-.253.276.993.993,0,0,0-.092.414.794.794,0,0,0,.207.587.721.721,0,0,0,.564.219,1.033,1.033,0,0,0,.633-.2,1.213,1.213,0,0,0,.426-.529A2.579,2.579,0,0,0,14,5.145Z" transform="translate(119.219 22.625)" fill="#fff"/>
  <path id="Path_1244" data-name="Path 1244" d="M11.763,7.39V2.269h.587V3.04a2.193,2.193,0,0,1,.4-.714.611.611,0,0,1,.426-.173,1.022,1.022,0,0,1,.656.276l-.219.806a.744.744,0,0,0-.472-.184.49.49,0,0,0-.368.161.853.853,0,0,0-.242.437,4.522,4.522,0,0,0-.127,1.059V7.39Z" transform="translate(123.611 22.635)" fill="#fff"/>
  <path id="Path_1245" data-name="Path 1245" d="M12.617,9.072h-.6V1.994h.644V4.526a1.483,1.483,0,0,1,.472-.518,1.024,1.024,0,0,1,.575-.173,1.266,1.266,0,0,1,.817.288,2.035,2.035,0,0,1,.587.9,4.422,4.422,0,0,1,.219,1.45,3.564,3.564,0,0,1-.495,2.014,1.449,1.449,0,0,1-1.162.7.982.982,0,0,1-.6-.2,1.435,1.435,0,0,1-.46-.564Zm-.012-2.6a4.381,4.381,0,0,0,.127,1.2,1.413,1.413,0,0,0,.38.6.789.789,0,0,0,.529.207.851.851,0,0,0,.714-.495,2.807,2.807,0,0,0,.311-1.473,2.868,2.868,0,0,0-.3-1.485.837.837,0,0,0-.737-.472.865.865,0,0,0-.714.495,2.68,2.68,0,0,0-.311,1.427" transform="translate(126.301 20.954)" fill="#fff"/>
  <path id="Path_1246" data-name="Path 1246" d="M12.4,4.824a3.334,3.334,0,0,1,.506-2,1.567,1.567,0,0,1,2.566,0,3.172,3.172,0,0,1,.506,1.956,3.424,3.424,0,0,1-.495,2.049,1.57,1.57,0,0,1-1.289.679,1.535,1.535,0,0,1-1.277-.679,3.251,3.251,0,0,1-.518-2m.667,0A2.672,2.672,0,0,0,13.4,6.309a.951.951,0,0,0,.806.483.906.906,0,0,0,.783-.495,2.655,2.655,0,0,0,.334-1.473,2.655,2.655,0,0,0-.334-1.473.955.955,0,0,0-.817-.483.945.945,0,0,0-.783.483,2.664,2.664,0,0,0-.322,1.473" transform="translate(130.263 22.635)" fill="#fff"/>
  <path id="Path_1247" data-name="Path 1247" d="M12.817,7.39V2.269H13.4V3.04a2.431,2.431,0,0,1,.4-.714.61.61,0,0,1,.426-.173,1.046,1.046,0,0,1,.656.276l-.219.806a.744.744,0,0,0-.472-.184.49.49,0,0,0-.368.161.853.853,0,0,0-.242.437,4.522,4.522,0,0,0-.127,1.059V7.39Z" transform="translate(134.687 22.635)" fill="#fff"/>
  <path id="Path_1248" data-name="Path 1248" d="M13.242,9.061V1.995h.7v2.9h2.739v-2.9h.69V9.061h-.69V5.723H13.944V9.061Z" transform="translate(139.155 20.962)" fill="#fff"/>
  <path id="Path_1249" data-name="Path 1249" d="M13.717,4.824a3.417,3.417,0,0,1,.506-2,1.573,1.573,0,0,1,1.289-.667,1.538,1.538,0,0,1,1.277.667A3.172,3.172,0,0,1,17.3,4.778,3.424,3.424,0,0,1,16.8,6.826a1.57,1.57,0,0,1-1.289.679,1.55,1.55,0,0,1-1.277-.679,3.33,3.33,0,0,1-.518-2m.679,0a2.682,2.682,0,0,0,.322,1.485.955.955,0,0,0,.817.483.934.934,0,0,0,.783-.495,2.664,2.664,0,0,0,.322-1.473,2.664,2.664,0,0,0-.322-1.473.955.955,0,0,0-.817-.483.931.931,0,0,0-.783.483A2.664,2.664,0,0,0,14.4,4.824" transform="translate(144.145 22.635)" fill="#fff"/>
  <path id="Path_1250" data-name="Path 1250" d="M14.116,5.859l.644-.138a1.269,1.269,0,0,0,.311.806.868.868,0,0,0,.679.265.836.836,0,0,0,.644-.23.79.79,0,0,0,.23-.575.6.6,0,0,0-.2-.472,2.294,2.294,0,0,0-.656-.288,4.864,4.864,0,0,1-1.013-.437,1.091,1.091,0,0,1-.391-.483,1.59,1.59,0,0,1-.138-.679,1.474,1.474,0,0,1,.38-1.059,1.353,1.353,0,0,1,1.059-.414,1.514,1.514,0,0,1,.737.173,1.254,1.254,0,0,1,.495.449,2.154,2.154,0,0,1,.242.817l-.633.115c-.058-.564-.334-.84-.829-.84a.873.873,0,0,0-.621.184.62.62,0,0,0-.207.472.519.519,0,0,0,.2.449,2.86,2.86,0,0,0,.7.311,4.562,4.562,0,0,1,1.036.449,1.094,1.094,0,0,1,.368.449,1.61,1.61,0,0,1,.127.691,1.691,1.691,0,0,1-.414,1.185A1.526,1.526,0,0,1,15.7,7.5c-.909,0-1.439-.541-1.588-1.646" transform="translate(148.337 22.625)" fill="#fff"/>
  <path id="Path_1251" data-name="Path 1251" d="M14.5,9.358V2.269h.6v.667a1.453,1.453,0,0,1,.483-.6,1.007,1.007,0,0,1,.61-.184,1.266,1.266,0,0,1,.817.288,2.035,2.035,0,0,1,.587.9,4.181,4.181,0,0,1,.219,1.45A3.474,3.474,0,0,1,17.321,6.8a1.424,1.424,0,0,1-1.174.7.978.978,0,0,1-.552-.173,1.366,1.366,0,0,1-.449-.472v2.5Zm.587-4.5a2.8,2.8,0,0,0,.3,1.462.888.888,0,0,0,.737.472.86.86,0,0,0,.714-.483A2.862,2.862,0,0,0,17.148,4.8a2.81,2.81,0,0,0-.3-1.485.864.864,0,0,0-.737-.483.873.873,0,0,0-.7.518,2.851,2.851,0,0,0-.322,1.508" transform="translate(152.383 22.635)" fill="#fff"/>
  <path id="Path_1252" data-name="Path 1252" d="M14.9,1.994h.644V3H14.9Zm0,1.945h.644V9.06H14.9Z" transform="translate(156.576 20.954)" fill="#fff"/>
  <path id="Path_1253" data-name="Path 1253" d="M16.828,8.142l.092.771a2.029,2.029,0,0,1-.483.069.982.982,0,0,1-.552-.138.822.822,0,0,1-.276-.4,3.988,3.988,0,0,1-.081-1.024V4.471h-.472V3.792h.472V2.526l.644-.518V3.792h.656v.679h-.656V7.463A1.68,1.68,0,0,0,16.23,8a.316.316,0,0,0,.311.173,1.483,1.483,0,0,0,.288-.035" transform="translate(158.215 21.101)" fill="#fff"/>
  <path id="Path_1254" data-name="Path 1254" d="M18,6.756a2.49,2.49,0,0,1-.679.564A1.509,1.509,0,0,1,16.6,7.5a1.217,1.217,0,0,1-.955-.391,1.524,1.524,0,0,1-.357-1.07,1.738,1.738,0,0,1,.173-.783,1.2,1.2,0,0,1,.449-.529,2.044,2.044,0,0,1,.875-.288,3.974,3.974,0,0,0,1.162-.311V3.914a1.29,1.29,0,0,0-.161-.737.893.893,0,0,0-.748-.311.978.978,0,0,0-.679.207,1.422,1.422,0,0,0-.322.771L15.4,3.73a1.942,1.942,0,0,1,.541-1.2,1.717,1.717,0,0,1,1.2-.38,1.5,1.5,0,0,1,.932.253,1.037,1.037,0,0,1,.437.61,5.036,5.036,0,0,1,.092,1.07V5.249c0,.806.011,1.323.035,1.531a2.833,2.833,0,0,0,.173.61h-.679A1.925,1.925,0,0,1,18,6.756m-.058-1.933a3.962,3.962,0,0,1-1.059.334,1.631,1.631,0,0,0-.564.173.65.65,0,0,0-.253.276.993.993,0,0,0-.092.414.794.794,0,0,0,.207.587.721.721,0,0,0,.564.219,1.033,1.033,0,0,0,.633-.2,1.213,1.213,0,0,0,.426-.529,2.579,2.579,0,0,0,.138-.955Z" transform="translate(160.632 22.625)" fill="#fff"/>

  <rect id="Rectangle_142590" data-name="Rectangle 142590" width="0.644" height="7.066" transform="translate(180.717 22.953)" fill="#fff"/>
  <rect id="Rectangle_142591" data-name="Rectangle 142591" width="5.305" height="6.79" transform="translate(13.212 5.633)" fill="#008a32"/>
  <rect id="Rectangle_142592" data-name="Rectangle 142592" width="5.305" height="6.767" transform="translate(13.212 25.485)" fill="#008a32"/>
  <rect id="Rectangle_142593" data-name="Rectangle 142593" width="6.802" height="5.305" transform="translate(5.628 19.362)" fill="#008a32"/>
  <rect id="Rectangle_142594" data-name="Rectangle 142594" width="5.305" height="6.767" transform="translate(19.392 25.485)" fill="#008a32"/>
  <rect id="Rectangle_142595" data-name="Rectangle 142595" width="6.755" height="5.305" transform="translate(25.503 19.362)" fill="#008a32"/>
  <rect id="Rectangle_142596" data-name="Rectangle 142596" width="6.802" height="5.305" transform="translate(5.628 13.182)" fill="#008a32"/>
  <rect id="Rectangle_142597" data-name="Rectangle 142597" width="6.755" height="5.305" transform="translate(25.503 13.182)" fill="#008a32"/>
  <rect id="Rectangle_142598" data-name="Rectangle 142598" width="5.305" height="6.79" transform="translate(19.403 5.633)" fill="#008a32"/>
  <path id="Path_1255" data-name="Path 1255" d="M5.494,5.873,1.316.464c-.23.2-.437.391-.656.587L5.494,7.185Z" transform="translate(6.936 4.876)" fill="#ffec00"/>
  <path id="Path_1256" data-name="Path 1256" d="M3.024,2.847V4.413L.895.741C1.206.557,1.413.442,1.7.3Z" transform="translate(9.405 3.195)" fill="#ffec00"/>
  <path id="Path_1257" data-name="Path 1257" d="M4.432,4.538,1.509.383C1.221.567,1.014.728.761.924l3.671,5.1Z" transform="translate(7.997 4.025)" fill="#ffec00"/>
  <path id="Path_1258" data-name="Path 1258" d="M2.505,3.212,2.183.162c-.288.046-.575.1-.863.161l.357,2.889Z" transform="translate(13.871 1.702)" fill="#ffec00"/>
  <path id="Path_1259" data-name="Path 1259" d="M2.632,2.875,1.965.194c-.276.069-.506.138-.783.219l.667,2.463Z" transform="translate(12.421 2.039)" fill="#ffec00"/>
  <path id="Path_1260" data-name="Path 1260" d="M2.575,2.382,1.769.241,1.044.517l.725,1.864Z" transform="translate(10.971 2.533)" fill="#ffec00"/>
  <path id="Path_1261" data-name="Path 1261" d="M5.355,4.41.9.762C.717,1,.544,1.234.383,1.476L4.169,4.41Z" transform="translate(4.025 8.007)" fill="#ffec00"/>
  <path id="Path_1262" data-name="Path 1262" d="M3.359,1.6l-3.1-.184c-.046.3-.081.587-.115.875l3.211.127Z" transform="translate(1.555 14.912)" fill="#ffec00"/>
  <path id="Path_1263" data-name="Path 1263" d="M3.117,1.969l-2.739-.7C.3,1.555.24,1.831.171,2.119l2.946.61Z" transform="translate(1.797 13.314)" fill="#ffec00"/>
  <path id="Path_1264" data-name="Path 1264" d="M3.432,1.662.176,1.547c-.012.288-.035.564-.035.852H3.432Z" transform="translate(1.482 16.257)" fill="#ffec00"/>
  <path id="Path_1265" data-name="Path 1265" d="M2.77,1.935.48,1.141C.377,1.406.3,1.67.2,1.958l2.566.76Z" transform="translate(2.144 11.99)" fill="#ffec00"/>
  <path id="Path_1266" data-name="Path 1266" d="M6.506,6.606,1.223.553a9.125,9.125,0,0,0-.667.667L5.413,6.606Z" transform="translate(5.843 5.811)" fill="#ffec00"/>
  <path id="Path_1267" data-name="Path 1267" d="M6.012,5.587,1.029.65C.8.915.6,1.179.465,1.375L4.9,5.587Z" transform="translate(4.886 6.831)" fill="#ffec00"/>
  <path id="Path_1268" data-name="Path 1268" d="M2.523,3.39,2.258.145c-.3.023-.506.046-.794.081l.3,3.165Z" transform="translate(15.384 1.524)" fill="#ffec00"/>
  <path id="Path_1269" data-name="Path 1269" d="M2.255,1.884v.806l-2-.932c.115-.276.2-.483.322-.748Z" transform="translate(2.659 10.603)" fill="#ffec00"/>
  <path id="Path_1270" data-name="Path 1270" d="M4.079,3.244.753.873c-.15.253-.3.506-.437.76l2.52,1.611Z" transform="translate(3.321 9.174)" fill="#ffec00"/>
  <path id="Path_1271" data-name="Path 1271" d="M2.216,6.825,7.165,1.036C6.946.84,6.727.656,6.5.472L2.216,5.536Z" transform="translate(23.287 4.96)" fill="#ffec00"/>
  <path id="Path_1272" data-name="Path 1272" d="M2.869,2.623l2.049-.794c-.1-.276-.219-.541-.345-.806l-1.7.714Z" transform="translate(30.149 10.75)" fill="#ffec00"/>
  <path id="Path_1273" data-name="Path 1273" d="M4.176,3.044,6.685,1.663c-.138-.265-.276-.518-.414-.771L2.634,3.044Z" transform="translate(27.679 9.374)" fill="#ffec00"/>
  <path id="Path_1274" data-name="Path 1274" d="M2.869,2.735l2.543-.748c-.081-.276-.173-.564-.265-.84l-2.279.667Z" transform="translate(30.149 12.053)" fill="#ffec00"/>
  <path id="Path_1275" data-name="Path 1275" d="M3.687,4.305,7.451,1.428c-.161-.253-.265-.414-.437-.656L2.479,4.305Z" transform="translate(26.05 8.113)" fill="#ffec00"/>
  <path id="Path_1276" data-name="Path 1276" d="M3.435,5.345,8.108,1.364c-.173-.23-.357-.472-.541-.691L2.342,5.345Z" transform="translate(24.611 7.072)" fill="#ffec00"/>
  <path id="Path_1277" data-name="Path 1277" d="M2.869,2.477,6.114,2.42c0-.3-.012-.587-.035-.875l-3.211.127Z" transform="translate(30.149 16.236)" fill="#ffec00"/>
  <path id="Path_1278" data-name="Path 1278" d="M2.869,2.617l3.165-.322-.1-.875L2.869,1.8Z" transform="translate(30.149 14.922)" fill="#ffec00"/>
  <path id="Path_1279" data-name="Path 1279" d="M2.869,2.785l2.923-.656c-.058-.288-.127-.575-.2-.852l-2.728.61Z" transform="translate(30.149 13.419)" fill="#ffec00"/>
  <path id="Path_1280" data-name="Path 1280" d="M2.5,3.432V.141H1.609V3.432Z" transform="translate(16.908 1.482)" fill="#ffec00"/>
  <path id="Path_1281" data-name="Path 1281" d="M2.9,2.865,3.633.448C3.357.356,3.069.264,2.793.195l-.817,2.67Z" transform="translate(20.765 2.049)" fill="#ffec00"/>
  <path id="Path_1282" data-name="Path 1282" d="M2.753,3.191,3.328.337C3.052.268,2.764.21,2.476.164L1.855,3.191Z" transform="translate(19.493 1.723)" fill="#ffec00"/>
  <path id="Path_1283" data-name="Path 1283" d="M3.432,1.676.141,1.664c0,.3.012.587.035.886l3.257-.138Z" transform="translate(1.482 17.486)" fill="#ffec00"/>
  <path id="Path_1284" data-name="Path 1284" d="M2.613,3.39,2.924.226C2.636.191,2.337.168,2.049.145L1.727,3.39Z" transform="translate(18.148 1.524)" fill="#ffec00"/>
  <path id="Path_1285" data-name="Path 1285" d="M2.216,5.919,5.807.889C5.576.717,5.335.544,5.093.383L2.216,4.572Z" transform="translate(23.287 4.025)" fill="#ffec00"/>
  <path id="Path_1286" data-name="Path 1286" d="M2.216,4.413,4.288.718C4.034.58,3.781.431,3.516.3l-1.3,2.405Z" transform="translate(23.287 3.195)" fill="#ffec00"/>
  <path id="Path_1287" data-name="Path 1287" d="M3.062,2.392,3.81.574C3.546.459,3.269.344,3,.24l-.9,2.152Z" transform="translate(22.141 2.522)" fill="#ffec00"/>
  <path id="Path_1288" data-name="Path 1288" d="M1.609,2.868V6.113h.875V2.868Z" transform="translate(16.908 30.138)" fill="#ffec00"/>
  <path id="Path_1289" data-name="Path 1289" d="M1.734,2.868l.242,3.2c.3-.023.587-.046.875-.081L2.62,2.868Z" transform="translate(18.222 30.138)" fill="#ffec00"/>
  <path id="Path_1290" data-name="Path 1290" d="M2.216,3.91,5.208,7.9c.242-.161.472-.334.7-.518L2.216,2.425Z" transform="translate(23.287 25.483)" fill="#ffec00"/>
  <path id="Path_1291" data-name="Path 1291" d="M3.586,6.736c.265-.127.472-.253.725-.391L2.216,2.627V4.273Z" transform="translate(23.287 27.606)" fill="#ffec00"/>
  <path id="Path_1292" data-name="Path 1292" d="M2.351,2.215,7.38,6.933c.219-.253.368-.449.529-.656L3.467,2.215Z" transform="translate(24.705 23.276)" fill="#ffec00"/>
  <path id="Path_1293" data-name="Path 1293" d="M2.216,2.215l5.57,5.812a8.088,8.088,0,0,0,.6-.656L3.378,2.215Z" transform="translate(23.287 23.276)" fill="#ffec00"/>
  <path id="Path_1294" data-name="Path 1294" d="M2.216,3.569l4.4,5.064c.219-.2.437-.391.644-.587L2.216,2.257Z" transform="translate(23.287 23.718)" fill="#ffec00"/>
  <path id="Path_1295" data-name="Path 1295" d="M1.861,2.868l.449,3L3.173,5.7,2.759,2.868Z" transform="translate(19.556 30.138)" fill="#ffec00"/>
  <path id="Path_1296" data-name="Path 1296" d="M2.106,2.868,2.969,5c.276-.1.541-.207.817-.322L3.05,2.868Z" transform="translate(22.131 30.138)" fill="#ffec00"/>
  <path id="Path_1297" data-name="Path 1297" d="M1.977,2.868,2.714,5.5c.288-.081.575-.161.852-.253L2.886,2.868Z" transform="translate(20.775 30.138)" fill="#ffec00"/>
  <path id="Path_1298" data-name="Path 1298" d="M2.869,2.929,5.1,3.677c.1-.276.2-.552.276-.84L2.869,2.008Z" transform="translate(30.149 21.101)" fill="#ffec00"/>
  <path id="Path_1299" data-name="Path 1299" d="M2.487,2.215,6.929,5.656c.184-.242.253-.357.426-.6l-3.8-2.843Z" transform="translate(26.135 23.276)" fill="#ffec00"/>
  <path id="Path_1300" data-name="Path 1300" d="M2.869,1.664V2.47l3.211.15c.023-.3.035-.587.035-.886Z" transform="translate(30.149 17.486)" fill="#ffec00"/>
  <path id="Path_1301" data-name="Path 1301" d="M2.869,2.72l2.716.621c.069-.276.138-.564.2-.852l-2.912-.6Z" transform="translate(30.149 19.872)" fill="#ffec00"/>
  <path id="Path_1302" data-name="Path 1302" d="M2.869,2.591l3.061.242Q6,2.4,6.034,1.97l-3.165-.2Z" transform="translate(30.149 18.642)" fill="#ffec00"/>
  <path id="Path_1303" data-name="Path 1303" d="M2.632,2.215l3.51,2.348c.161-.253.3-.506.449-.76L4.117,2.215Z" transform="translate(27.658 23.276)" fill="#ffec00"/>
  <path id="Path_1304" data-name="Path 1304" d="M4.492,3.731c.127-.265.207-.449.322-.725L2.869,2.143v.829Z" transform="translate(30.149 22.52)" fill="#ffec00"/>
  <path id="Path_1305" data-name="Path 1305" d="M1.885,2.868,1.31,5.688l.863.173.61-2.992Z" transform="translate(13.766 30.138)" fill="#ffec00"/>
  <path id="Path_1306" data-name="Path 1306" d="M2.792,2.215.306,3.527c.127.265.265.529.414.783L4.265,2.215Z" transform="translate(3.216 23.276)" fill="#ffec00"/>
  <path id="Path_1307" data-name="Path 1307" d="M4.108,2.215.379,5c.15.242.311.495.472.737l4.6-3.522Z" transform="translate(3.983 23.276)" fill="#ffec00"/>
  <path id="Path_1308" data-name="Path 1308" d="M5.146,2.215.451,6.151a6.206,6.206,0,0,0,.541.691L6.228,2.215Z" transform="translate(4.739 23.276)" fill="#ffec00"/>
  <path id="Path_1309" data-name="Path 1309" d="M7.8.568c.2.207.4.414.61.633L3.262,6.449H2.215Z" transform="translate(23.276 5.969)" fill="#ffec00"/>
  <path id="Path_1310" data-name="Path 1310" d="M1.762,2.868l-.3,3.119c.288.035.575.069.863.081l.322-3.2Z" transform="translate(15.374 30.138)" fill="#ffec00"/>
  <path id="Path_1311" data-name="Path 1311" d="M2.308,2.135l-2.06.783c.1.276.207.529.334.794l1.726-.76Z" transform="translate(2.606 22.436)" fill="#ffec00"/>
  <path id="Path_1312" data-name="Path 1312" d="M2.8,2,.2,2.771c.081.276.173.552.265.829L2.8,2.921Z" transform="translate(2.112 21.017)" fill="#ffec00"/>
  <path id="Path_1313" data-name="Path 1313" d="M3.138,1.877.169,2.544c.058.288.115.575.184.852l2.785-.621Z" transform="translate(1.776 19.724)" fill="#ffec00"/>
  <path id="Path_1314" data-name="Path 1314" d="M1.763,2.868,1.038,4.64c.265.115.529.23.806.334l.875-2.106Z" transform="translate(10.908 30.138)" fill="#ffec00"/>
  <path id="Path_1315" data-name="Path 1315" d="M1.9,2.868,1.173,5.239c.288.092.564.184.84.265l.806-2.635Z" transform="translate(12.326 30.138)" fill="#ffec00"/>
  <path id="Path_1316" data-name="Path 1316" d="M3.359,1.767.148,2.032q.035.432.1.863l3.107-.311Z" transform="translate(1.555 18.568)" fill="#ffec00"/>
  <path id="Path_1317" data-name="Path 1317" d="M1.153,8.073c-.207-.207-.4-.414-.61-.633L5.687,2.215H6.723Z" transform="translate(5.706 23.276)" fill="#ffec00"/>
  <path id="Path_1318" data-name="Path 1318" d="M5.651,2.266.645,8.043c.219.2.437.391.667.575L5.651,3.486Z" transform="translate(6.778 23.812)" fill="#ffec00"/>
  <path id="Path_1319" data-name="Path 1319" d="M3.014,2.61.9,6.523c.253.15.506.288.771.414L3.014,4.451Z" transform="translate(9.416 27.427)" fill="#ffec00"/>
  <path id="Path_1320" data-name="Path 1320" d="M4.411,2.426.763,7.467c.242.173.483.334.725.495L4.411,3.7Z" transform="translate(8.018 25.494)" fill="#ffec00"/>
  <path id="Path_1321" data-name="Path 1321" d="M10.255,11.766c-1.093.1-2.072.207-2.279-.207s.518-.276.7-.3,1.473.069,1.933,0,.875-.265.875-.506-.127-.414-.921-.46-3.36.092-3.314-.449.978-.322,1.22-.322,2.7,0,2.946-1.634c.219-1.565-2.394-2.509-3.153-2.555a25.982,25.982,0,0,0,2.843-.058c.46-.1.932-.207.932-.483s-.495-.46-1.116-.518S9.76,4.067,9.76,3.859s.184-.276.667-.253,1.346-.115,1.346-.587-.806-.437-1.162-.437A15.453,15.453,0,0,0,8.8,2.559a.155.155,0,0,1-.161-.081A3.929,3.929,0,0,0,8,1.6a2.161,2.161,0,0,0-1.726-.449c-.783.138-1.07.691-1.508,1.277a.409.409,0,0,1-.334.161H3.223s-1.634-.138-1.634.426.76.587,1.013.587.518,0,.518,0,.426-.058.46.127-.207.311-.46.414A5.79,5.79,0,0,1,2,4.366c-.23.012-.852.115-.829.426.046.426,1.082.414,1.37.449a15.1,15.1,0,0,0,1.611.069s.955-.012,1.185,0c0,0-3.464.414-3.464,2.21S4.259,9.6,4.673,9.625s1.37-.23,1.393.127-.575.541-1.036.541-1.5.023-1.91,0-1.243.023-1.243.322.334.667,1.059.644,1.059-.081,1.427-.092c0,0,1.024-.035,1.024.276,0,0-.127.587-1.024.495s-2.82-.288-3,.161.644.679,1.036.667h8.321c1.231,0,1.266-.334,1.289-.541s-.667-.564-1.749-.46M9.265,6.61s.368.288.3.495-.541.311-.99.23a2.889,2.889,0,0,1-1.082-.38.465.465,0,0,1,0-.621,4.209,4.209,0,0,1,1.082,0,1.309,1.309,0,0,1,.691.276M3.856,7.1c-.069-.207.3-.495.3-.495a1.341,1.341,0,0,1,.691-.276,4.292,4.292,0,0,1,1.093,0,.493.493,0,0,1,0,.621,3.929,3.929,0,0,1-1.093.38c-.437.081-.909-.035-.99-.23M6.043,8.716c-.023.092-.127.173-1.093.092C4.8,8.8,3.868,8.624,4.017,8.29l.035-.046c.127-.184.7-.115.9-.092.909.1,1.116.472,1.093.564M5.72,4.147c-.15-.012-.6-.138-.667-.276L5.03,3.79c0-.23.564-.4.725-.4.552-.023,1.715-.023,1.9,0s.7.058.725.334-.288.426-.564.426-1.784.012-2.095,0M7.055,8.774l-.023-.035c-.15-.357.932-.529,1.059-.541,1.128-.127,1.243-.046,1.289.035.081.173-.207.449-1.266.587-.207.035-.921.161-1.059-.046" transform="translate(12.336 11.85)" fill="#47b"/>

</svg>
