<svg id="Sltung-logo" xmlns="http://www.w3.org/2000/svg" width="38.001" height="38.001" viewBox="0 0 38.001 38.001">
  <path id="Path_1208" data-name="Path 1208" d="M0,19A18.995,18.995,0,1,1,19,38,19,19,0,0,1,0,19" fill="#fff"/>

  <rect id="Rectangle_142590" data-name="Rectangle 142590" width="0.644" height="7.066" transform="translate(180.717 22.953)" fill="#fff"/>
  <rect id="Rectangle_142591" data-name="Rectangle 142591" width="5.305" height="6.79" transform="translate(13.212 5.633)" fill="#008a32"/>
  <rect id="Rectangle_142592" data-name="Rectangle 142592" width="5.305" height="6.767" transform="translate(13.212 25.485)" fill="#008a32"/>
  <rect id="Rectangle_142593" data-name="Rectangle 142593" width="6.802" height="5.305" transform="translate(5.628 19.362)" fill="#008a32"/>
  <rect id="Rectangle_142594" data-name="Rectangle 142594" width="5.305" height="6.767" transform="translate(19.392 25.485)" fill="#008a32"/>
  <rect id="Rectangle_142595" data-name="Rectangle 142595" width="6.755" height="5.305" transform="translate(25.503 19.362)" fill="#008a32"/>
  <rect id="Rectangle_142596" data-name="Rectangle 142596" width="6.802" height="5.305" transform="translate(5.628 13.182)" fill="#008a32"/>
  <rect id="Rectangle_142597" data-name="Rectangle 142597" width="6.755" height="5.305" transform="translate(25.503 13.182)" fill="#008a32"/>
  <rect id="Rectangle_142598" data-name="Rectangle 142598" width="5.305" height="6.79" transform="translate(19.403 5.633)" fill="#008a32"/>
  <path id="Path_1255" data-name="Path 1255" d="M5.494,5.873,1.316.464c-.23.2-.437.391-.656.587L5.494,7.185Z" transform="translate(6.936 4.876)" fill="#ffec00"/>
  <path id="Path_1256" data-name="Path 1256" d="M3.024,2.847V4.413L.895.741C1.206.557,1.413.442,1.7.3Z" transform="translate(9.405 3.195)" fill="#ffec00"/>
  <path id="Path_1257" data-name="Path 1257" d="M4.432,4.538,1.509.383C1.221.567,1.014.728.761.924l3.671,5.1Z" transform="translate(7.997 4.025)" fill="#ffec00"/>
  <path id="Path_1258" data-name="Path 1258" d="M2.505,3.212,2.183.162c-.288.046-.575.1-.863.161l.357,2.889Z" transform="translate(13.871 1.702)" fill="#ffec00"/>
  <path id="Path_1259" data-name="Path 1259" d="M2.632,2.875,1.965.194c-.276.069-.506.138-.783.219l.667,2.463Z" transform="translate(12.421 2.039)" fill="#ffec00"/>
  <path id="Path_1260" data-name="Path 1260" d="M2.575,2.382,1.769.241,1.044.517l.725,1.864Z" transform="translate(10.971 2.533)" fill="#ffec00"/>
  <path id="Path_1261" data-name="Path 1261" d="M5.355,4.41.9.762C.717,1,.544,1.234.383,1.476L4.169,4.41Z" transform="translate(4.025 8.007)" fill="#ffec00"/>
  <path id="Path_1262" data-name="Path 1262" d="M3.359,1.6l-3.1-.184c-.046.3-.081.587-.115.875l3.211.127Z" transform="translate(1.555 14.912)" fill="#ffec00"/>
  <path id="Path_1263" data-name="Path 1263" d="M3.117,1.969l-2.739-.7C.3,1.555.24,1.831.171,2.119l2.946.61Z" transform="translate(1.797 13.314)" fill="#ffec00"/>
  <path id="Path_1264" data-name="Path 1264" d="M3.432,1.662.176,1.547c-.012.288-.035.564-.035.852H3.432Z" transform="translate(1.482 16.257)" fill="#ffec00"/>
  <path id="Path_1265" data-name="Path 1265" d="M2.77,1.935.48,1.141C.377,1.406.3,1.67.2,1.958l2.566.76Z" transform="translate(2.144 11.99)" fill="#ffec00"/>
  <path id="Path_1266" data-name="Path 1266" d="M6.506,6.606,1.223.553a9.125,9.125,0,0,0-.667.667L5.413,6.606Z" transform="translate(5.843 5.811)" fill="#ffec00"/>
  <path id="Path_1267" data-name="Path 1267" d="M6.012,5.587,1.029.65C.8.915.6,1.179.465,1.375L4.9,5.587Z" transform="translate(4.886 6.831)" fill="#ffec00"/>
  <path id="Path_1268" data-name="Path 1268" d="M2.523,3.39,2.258.145c-.3.023-.506.046-.794.081l.3,3.165Z" transform="translate(15.384 1.524)" fill="#ffec00"/>
  <path id="Path_1269" data-name="Path 1269" d="M2.255,1.884v.806l-2-.932c.115-.276.2-.483.322-.748Z" transform="translate(2.659 10.603)" fill="#ffec00"/>
  <path id="Path_1270" data-name="Path 1270" d="M4.079,3.244.753.873c-.15.253-.3.506-.437.76l2.52,1.611Z" transform="translate(3.321 9.174)" fill="#ffec00"/>
  <path id="Path_1271" data-name="Path 1271" d="M2.216,6.825,7.165,1.036C6.946.84,6.727.656,6.5.472L2.216,5.536Z" transform="translate(23.287 4.96)" fill="#ffec00"/>
  <path id="Path_1272" data-name="Path 1272" d="M2.869,2.623l2.049-.794c-.1-.276-.219-.541-.345-.806l-1.7.714Z" transform="translate(30.149 10.75)" fill="#ffec00"/>
  <path id="Path_1273" data-name="Path 1273" d="M4.176,3.044,6.685,1.663c-.138-.265-.276-.518-.414-.771L2.634,3.044Z" transform="translate(27.679 9.374)" fill="#ffec00"/>
  <path id="Path_1274" data-name="Path 1274" d="M2.869,2.735l2.543-.748c-.081-.276-.173-.564-.265-.84l-2.279.667Z" transform="translate(30.149 12.053)" fill="#ffec00"/>
  <path id="Path_1275" data-name="Path 1275" d="M3.687,4.305,7.451,1.428c-.161-.253-.265-.414-.437-.656L2.479,4.305Z" transform="translate(26.05 8.113)" fill="#ffec00"/>
  <path id="Path_1276" data-name="Path 1276" d="M3.435,5.345,8.108,1.364c-.173-.23-.357-.472-.541-.691L2.342,5.345Z" transform="translate(24.611 7.072)" fill="#ffec00"/>
  <path id="Path_1277" data-name="Path 1277" d="M2.869,2.477,6.114,2.42c0-.3-.012-.587-.035-.875l-3.211.127Z" transform="translate(30.149 16.236)" fill="#ffec00"/>
  <path id="Path_1278" data-name="Path 1278" d="M2.869,2.617l3.165-.322-.1-.875L2.869,1.8Z" transform="translate(30.149 14.922)" fill="#ffec00"/>
  <path id="Path_1279" data-name="Path 1279" d="M2.869,2.785l2.923-.656c-.058-.288-.127-.575-.2-.852l-2.728.61Z" transform="translate(30.149 13.419)" fill="#ffec00"/>
  <path id="Path_1280" data-name="Path 1280" d="M2.5,3.432V.141H1.609V3.432Z" transform="translate(16.908 1.482)" fill="#ffec00"/>
  <path id="Path_1281" data-name="Path 1281" d="M2.9,2.865,3.633.448C3.357.356,3.069.264,2.793.195l-.817,2.67Z" transform="translate(20.765 2.049)" fill="#ffec00"/>
  <path id="Path_1282" data-name="Path 1282" d="M2.753,3.191,3.328.337C3.052.268,2.764.21,2.476.164L1.855,3.191Z" transform="translate(19.493 1.723)" fill="#ffec00"/>
  <path id="Path_1283" data-name="Path 1283" d="M3.432,1.676.141,1.664c0,.3.012.587.035.886l3.257-.138Z" transform="translate(1.482 17.486)" fill="#ffec00"/>
  <path id="Path_1284" data-name="Path 1284" d="M2.613,3.39,2.924.226C2.636.191,2.337.168,2.049.145L1.727,3.39Z" transform="translate(18.148 1.524)" fill="#ffec00"/>
  <path id="Path_1285" data-name="Path 1285" d="M2.216,5.919,5.807.889C5.576.717,5.335.544,5.093.383L2.216,4.572Z" transform="translate(23.287 4.025)" fill="#ffec00"/>
  <path id="Path_1286" data-name="Path 1286" d="M2.216,4.413,4.288.718C4.034.58,3.781.431,3.516.3l-1.3,2.405Z" transform="translate(23.287 3.195)" fill="#ffec00"/>
  <path id="Path_1287" data-name="Path 1287" d="M3.062,2.392,3.81.574C3.546.459,3.269.344,3,.24l-.9,2.152Z" transform="translate(22.141 2.522)" fill="#ffec00"/>
  <path id="Path_1288" data-name="Path 1288" d="M1.609,2.868V6.113h.875V2.868Z" transform="translate(16.908 30.138)" fill="#ffec00"/>
  <path id="Path_1289" data-name="Path 1289" d="M1.734,2.868l.242,3.2c.3-.023.587-.046.875-.081L2.62,2.868Z" transform="translate(18.222 30.138)" fill="#ffec00"/>
  <path id="Path_1290" data-name="Path 1290" d="M2.216,3.91,5.208,7.9c.242-.161.472-.334.7-.518L2.216,2.425Z" transform="translate(23.287 25.483)" fill="#ffec00"/>
  <path id="Path_1291" data-name="Path 1291" d="M3.586,6.736c.265-.127.472-.253.725-.391L2.216,2.627V4.273Z" transform="translate(23.287 27.606)" fill="#ffec00"/>
  <path id="Path_1292" data-name="Path 1292" d="M2.351,2.215,7.38,6.933c.219-.253.368-.449.529-.656L3.467,2.215Z" transform="translate(24.705 23.276)" fill="#ffec00"/>
  <path id="Path_1293" data-name="Path 1293" d="M2.216,2.215l5.57,5.812a8.088,8.088,0,0,0,.6-.656L3.378,2.215Z" transform="translate(23.287 23.276)" fill="#ffec00"/>
  <path id="Path_1294" data-name="Path 1294" d="M2.216,3.569l4.4,5.064c.219-.2.437-.391.644-.587L2.216,2.257Z" transform="translate(23.287 23.718)" fill="#ffec00"/>
  <path id="Path_1295" data-name="Path 1295" d="M1.861,2.868l.449,3L3.173,5.7,2.759,2.868Z" transform="translate(19.556 30.138)" fill="#ffec00"/>
  <path id="Path_1296" data-name="Path 1296" d="M2.106,2.868,2.969,5c.276-.1.541-.207.817-.322L3.05,2.868Z" transform="translate(22.131 30.138)" fill="#ffec00"/>
  <path id="Path_1297" data-name="Path 1297" d="M1.977,2.868,2.714,5.5c.288-.081.575-.161.852-.253L2.886,2.868Z" transform="translate(20.775 30.138)" fill="#ffec00"/>
  <path id="Path_1298" data-name="Path 1298" d="M2.869,2.929,5.1,3.677c.1-.276.2-.552.276-.84L2.869,2.008Z" transform="translate(30.149 21.101)" fill="#ffec00"/>
  <path id="Path_1299" data-name="Path 1299" d="M2.487,2.215,6.929,5.656c.184-.242.253-.357.426-.6l-3.8-2.843Z" transform="translate(26.135 23.276)" fill="#ffec00"/>
  <path id="Path_1300" data-name="Path 1300" d="M2.869,1.664V2.47l3.211.15c.023-.3.035-.587.035-.886Z" transform="translate(30.149 17.486)" fill="#ffec00"/>
  <path id="Path_1301" data-name="Path 1301" d="M2.869,2.72l2.716.621c.069-.276.138-.564.2-.852l-2.912-.6Z" transform="translate(30.149 19.872)" fill="#ffec00"/>
  <path id="Path_1302" data-name="Path 1302" d="M2.869,2.591l3.061.242Q6,2.4,6.034,1.97l-3.165-.2Z" transform="translate(30.149 18.642)" fill="#ffec00"/>
  <path id="Path_1303" data-name="Path 1303" d="M2.632,2.215l3.51,2.348c.161-.253.3-.506.449-.76L4.117,2.215Z" transform="translate(27.658 23.276)" fill="#ffec00"/>
  <path id="Path_1304" data-name="Path 1304" d="M4.492,3.731c.127-.265.207-.449.322-.725L2.869,2.143v.829Z" transform="translate(30.149 22.52)" fill="#ffec00"/>
  <path id="Path_1305" data-name="Path 1305" d="M1.885,2.868,1.31,5.688l.863.173.61-2.992Z" transform="translate(13.766 30.138)" fill="#ffec00"/>
  <path id="Path_1306" data-name="Path 1306" d="M2.792,2.215.306,3.527c.127.265.265.529.414.783L4.265,2.215Z" transform="translate(3.216 23.276)" fill="#ffec00"/>
  <path id="Path_1307" data-name="Path 1307" d="M4.108,2.215.379,5c.15.242.311.495.472.737l4.6-3.522Z" transform="translate(3.983 23.276)" fill="#ffec00"/>
  <path id="Path_1308" data-name="Path 1308" d="M5.146,2.215.451,6.151a6.206,6.206,0,0,0,.541.691L6.228,2.215Z" transform="translate(4.739 23.276)" fill="#ffec00"/>
  <path id="Path_1309" data-name="Path 1309" d="M7.8.568c.2.207.4.414.61.633L3.262,6.449H2.215Z" transform="translate(23.276 5.969)" fill="#ffec00"/>
  <path id="Path_1310" data-name="Path 1310" d="M1.762,2.868l-.3,3.119c.288.035.575.069.863.081l.322-3.2Z" transform="translate(15.374 30.138)" fill="#ffec00"/>
  <path id="Path_1311" data-name="Path 1311" d="M2.308,2.135l-2.06.783c.1.276.207.529.334.794l1.726-.76Z" transform="translate(2.606 22.436)" fill="#ffec00"/>
  <path id="Path_1312" data-name="Path 1312" d="M2.8,2,.2,2.771c.081.276.173.552.265.829L2.8,2.921Z" transform="translate(2.112 21.017)" fill="#ffec00"/>
  <path id="Path_1313" data-name="Path 1313" d="M3.138,1.877.169,2.544c.058.288.115.575.184.852l2.785-.621Z" transform="translate(1.776 19.724)" fill="#ffec00"/>
  <path id="Path_1314" data-name="Path 1314" d="M1.763,2.868,1.038,4.64c.265.115.529.23.806.334l.875-2.106Z" transform="translate(10.908 30.138)" fill="#ffec00"/>
  <path id="Path_1315" data-name="Path 1315" d="M1.9,2.868,1.173,5.239c.288.092.564.184.84.265l.806-2.635Z" transform="translate(12.326 30.138)" fill="#ffec00"/>
  <path id="Path_1316" data-name="Path 1316" d="M3.359,1.767.148,2.032q.035.432.1.863l3.107-.311Z" transform="translate(1.555 18.568)" fill="#ffec00"/>
  <path id="Path_1317" data-name="Path 1317" d="M1.153,8.073c-.207-.207-.4-.414-.61-.633L5.687,2.215H6.723Z" transform="translate(5.706 23.276)" fill="#ffec00"/>
  <path id="Path_1318" data-name="Path 1318" d="M5.651,2.266.645,8.043c.219.2.437.391.667.575L5.651,3.486Z" transform="translate(6.778 23.812)" fill="#ffec00"/>
  <path id="Path_1319" data-name="Path 1319" d="M3.014,2.61.9,6.523c.253.15.506.288.771.414L3.014,4.451Z" transform="translate(9.416 27.427)" fill="#ffec00"/>
  <path id="Path_1320" data-name="Path 1320" d="M4.411,2.426.763,7.467c.242.173.483.334.725.495L4.411,3.7Z" transform="translate(8.018 25.494)" fill="#ffec00"/>
  <path id="Path_1321" data-name="Path 1321" d="M10.255,11.766c-1.093.1-2.072.207-2.279-.207s.518-.276.7-.3,1.473.069,1.933,0,.875-.265.875-.506-.127-.414-.921-.46-3.36.092-3.314-.449.978-.322,1.22-.322,2.7,0,2.946-1.634c.219-1.565-2.394-2.509-3.153-2.555a25.982,25.982,0,0,0,2.843-.058c.46-.1.932-.207.932-.483s-.495-.46-1.116-.518S9.76,4.067,9.76,3.859s.184-.276.667-.253,1.346-.115,1.346-.587-.806-.437-1.162-.437A15.453,15.453,0,0,0,8.8,2.559a.155.155,0,0,1-.161-.081A3.929,3.929,0,0,0,8,1.6a2.161,2.161,0,0,0-1.726-.449c-.783.138-1.07.691-1.508,1.277a.409.409,0,0,1-.334.161H3.223s-1.634-.138-1.634.426.76.587,1.013.587.518,0,.518,0,.426-.058.46.127-.207.311-.46.414A5.79,5.79,0,0,1,2,4.366c-.23.012-.852.115-.829.426.046.426,1.082.414,1.37.449a15.1,15.1,0,0,0,1.611.069s.955-.012,1.185,0c0,0-3.464.414-3.464,2.21S4.259,9.6,4.673,9.625s1.37-.23,1.393.127-.575.541-1.036.541-1.5.023-1.91,0-1.243.023-1.243.322.334.667,1.059.644,1.059-.081,1.427-.092c0,0,1.024-.035,1.024.276,0,0-.127.587-1.024.495s-2.82-.288-3,.161.644.679,1.036.667h8.321c1.231,0,1.266-.334,1.289-.541s-.667-.564-1.749-.46M9.265,6.61s.368.288.3.495-.541.311-.99.23a2.889,2.889,0,0,1-1.082-.38.465.465,0,0,1,0-.621,4.209,4.209,0,0,1,1.082,0,1.309,1.309,0,0,1,.691.276M3.856,7.1c-.069-.207.3-.495.3-.495a1.341,1.341,0,0,1,.691-.276,4.292,4.292,0,0,1,1.093,0,.493.493,0,0,1,0,.621,3.929,3.929,0,0,1-1.093.38c-.437.081-.909-.035-.99-.23M6.043,8.716c-.023.092-.127.173-1.093.092C4.8,8.8,3.868,8.624,4.017,8.29l.035-.046c.127-.184.7-.115.9-.092.909.1,1.116.472,1.093.564M5.72,4.147c-.15-.012-.6-.138-.667-.276L5.03,3.79c0-.23.564-.4.725-.4.552-.023,1.715-.023,1.9,0s.7.058.725.334-.288.426-.564.426-1.784.012-2.095,0M7.055,8.774l-.023-.035c-.15-.357.932-.529,1.059-.541,1.128-.127,1.243-.046,1.289.035.081.173-.207.449-1.266.587-.207.035-.921.161-1.059-.046" transform="translate(12.336 11.85)" fill="#47b"/>

</svg>
