<svg id="Medical-user-icon" xmlns="http://www.w3.org/2000/svg" width="34" height="34" viewBox="0 0 34 34">
  <circle id="Ellipse_1" data-name="Ellipse 1" cx="17" cy="17" r="17" fill="#094"/>
  <path id="Icon-med-user" d="M9.878,16.706a.677.677,0,1,1-.2-.47.642.642,0,0,1,.2.47Zm10.689.637a2.6,2.6,0,0,1-.762,1.983,2.827,2.827,0,0,1-2.025.72H8.656a2.827,2.827,0,0,1-2.025-.72,2.6,2.6,0,0,1-.762-1.983q0-.71.057-1.367a9.515,9.515,0,0,1,.251-1.44,6.555,6.555,0,0,1,.5-1.383,3.547,3.547,0,0,1,.846-1.075,2.782,2.782,0,0,1,1.253-.632,3.193,3.193,0,0,0-.23,1.253v2.119a1.92,1.92,0,0,0-.971.731,1.975,1.975,0,0,0-.365,1.159,2,2,0,0,0,2,2,2,2,0,0,0,2-2,2.01,2.01,0,0,0-1.336-1.889V12.7a1.525,1.525,0,0,1,.261-.971,4.91,4.91,0,0,0,6.159,0,1.525,1.525,0,0,1,.261.971v.668a2.673,2.673,0,0,0-2.672,2.672v.929a1,1,0,1,0,1.336,0v-.929a1.336,1.336,0,0,1,2.672,0v.929a1,1,0,1,0,1.336,0v-.929a2.677,2.677,0,0,0-1.336-2.307q0-.1.005-.444t0-.5q-.005-.162-.026-.433a3.18,3.18,0,0,0-.073-.491,2.663,2.663,0,0,0-.136-.418,2.782,2.782,0,0,1,1.253.632,3.547,3.547,0,0,1,.846,1.075,6.555,6.555,0,0,1,.5,1.383,9.515,9.515,0,0,1,.251,1.44q.057.658.057,1.367Zm-3.34-9.928a3.862,3.862,0,0,1-1.174,2.834,4.007,4.007,0,0,1-5.668,0A3.862,3.862,0,0,1,9.21,7.415a3.862,3.862,0,0,1,1.174-2.834,4.007,4.007,0,0,1,5.668,0A3.862,3.862,0,0,1,17.226,7.415Z" transform="translate(4.105 4.284)" fill="#fff"/>
</svg>
