<svg xmlns="http://www.w3.org/2000/svg" width="9.477" height="12.655" viewBox="0 0 9.477 12.655"><defs><style>.a{fill:#ffffff;}</style></defs><path class="a" d="M10.574,4.574A1.177,1.177,0,1,0,9.4,3.4,1.181,1.181,0,0,0,10.574,4.574ZM8.455,12.756l.589-2.59,1.236,1.177v3.532h1.177V10.46L10.221,9.283l.353-1.766a4.31,4.31,0,0,0,3.237,1.472V7.812A2.9,2.9,0,0,1,11.281,6.4l-.589-.942a1.214,1.214,0,0,0-1-.589c-.177,0-.294.059-.471.059L6.16,6.223V8.989H7.337v-2L8.4,6.576l-.942,4.768L4.57,10.755l-.235,1.177Z" transform="translate(-4.335 -2.22)"/></svg>